<?xml version="1.0" encoding="UTF-8" standalone="no"?>
<svg
   xmlns:dc="http://purl.org/dc/elements/1.1/"
   xmlns:cc="http://creativecommons.org/ns#"
   xmlns:rdf="http://www.w3.org/1999/02/22-rdf-syntax-ns#"
   xmlns:svg="http://www.w3.org/2000/svg"
   xmlns="http://www.w3.org/2000/svg"
   xmlns:xlink="http://www.w3.org/1999/xlink"
   xmlns:sodipodi="http://sodipodi.sourceforge.net/DTD/sodipodi-0.dtd"
   xmlns:inkscape="http://www.inkscape.org/namespaces/inkscape"
   height="200"
   width="1920"
   viewBox="0 0 507.99999 52.916668"
   version="1.1"
   id="svg8"
   inkscape:version="0.92.4 (5da689c313, 2019-01-14)"
   sodipodi:docname="saneczkarz.svg"
   class="svg">
  <defs
     id="defs2">
    <linearGradient
       inkscape:collect="always"
       id="linearGradient5111">
      <stop
         style="stop-color:#060f2d;stop-opacity:0"
         offset="0"
         id="stop5107" />
      <stop
         id="stop5133"
         offset="0.1542013"
         style="stop-color:#043047;stop-opacity:0;" />
      <stop
         id="stop5131"
         offset="0.34220415"
         style="stop-color:#035363;stop-opacity:0" />
      <stop
         style="stop-color:#56b0b4;stop-opacity:0"
         offset="0.59126139"
         id="stop5137" />
      <stop
         style="stop-color:#69b9bc;stop-opacity:0"
         offset="0.77740175"
         id="stop5135" />
      <stop
         id="stop5129"
         offset="0.96715724"
         style="stop-color:#008080;stop-opacity:0;" />
      <stop
         style="stop-color:#008080;stop-opacity:0;"
         offset="1"
         id="stop5109" />
    </linearGradient>
    <inkscape:perspective
       sodipodi:type="inkscape:persp3d"
       inkscape:vp_x="0 : 148.5 : 1"
       inkscape:vp_y="0 : 1000 : 0"
       inkscape:vp_z="210 : 148.5 : 1"
       inkscape:persp3d-origin="105 : 99 : 1"
       id="perspective5105" />
    <linearGradient
       inkscape:collect="always"
       xlink:href="#linearGradient5111"
       id="linearGradient5113"
       x1="492.88092"
       y1="-285.83929"
       x2="-582.08331"
       y2="-84.000015"
       gradientUnits="userSpaceOnUse" />
  </defs>
  <sodipodi:namedview
     id="base"
     pagecolor="#ffffff"
     bordercolor="#666666"
     borderopacity="1.0"
     inkscape:pageopacity="0.0"
     inkscape:pageshadow="2"
     inkscape:zoom="0.9899495"
     inkscape:cx="905.31546"
     inkscape:cy="-0.70829855"
     inkscape:document-units="mm"
     inkscape:current-layer="layer2"
     showgrid="false"
     units="px"
     inkscape:window-width="2400"
     inkscape:window-height="1271"
     inkscape:window-x="2391"
     inkscape:window-y="-9"
     inkscape:window-maximized="1" />
  <metadata
     id="metadata5">
    <rdf:RDF>
      <cc:Work
         rdf:about="">
        <dc:format>image/svg+xml</dc:format>
        <dc:type
           rdf:resource="http://purl.org/dc/dcmitype/StillImage" />
        <dc:title />
      </cc:Work>
    </rdf:RDF>
  </metadata>
  <g
     inkscape:label="Layer 1"
     inkscape:groupmode="layer"
     id="layer1"
     transform="translate(0,-244.08331)">
    <path
       style="fill:none;stroke:#ffffff;stroke-width:1.38831508;stroke-linecap:round;stroke-linejoin:miter;stroke-miterlimit:4;stroke-dasharray:none;stroke-opacity:1"
       d="m 244.78383,274.70991 0.47656,4.33315"
       id="path5241"
       inkscape:connector-curvature="0" />
    <path
       style="fill:none;stroke:#fbffff;stroke-width:1.49806333;stroke-linecap:round;stroke-linejoin:miter;stroke-miterlimit:4;stroke-dasharray:none;stroke-opacity:1"
       d="m 256.45913,274.34882 0.71481,3.79151"
       id="path5243"
       inkscape:connector-curvature="0" />
  </g>
  <g
     inkscape:groupmode="layer"
     id="layer10"
     inkscape:label="sled4" />
  <g
     inkscape:groupmode="layer"
     id="layer9"
     inkscape:label="sled3" />
  <g
     inkscape:groupmode="layer"
     id="layer2"
     inkscape:label="Layer 2">
    <path
       style="fill:#fcfcfc;fill-opacity:1;stroke:#ffffff;stroke-width:2.37945247;stroke-linecap:round;stroke-linejoin:miter;stroke-miterlimit:4;stroke-dasharray:none;stroke-opacity:1"
       d="M 506.80858,26.405118 1.7040796,51.065869"
       id="path5214"
       inkscape:connector-curvature="0" />
    <ellipse
       id="path5231"
       style="fill:#ffffff;fill-opacity:1;stroke:none;stroke-width:1.0974822"
       cx="258.30569"
       cy="15.686254"
       inkscape:transform-center-x="0.71481245"
       inkscape:transform-center-y="2.8887688"
       rx="3.7823179"
       ry="2.8660221" />
    <path
       style="fill:none;stroke:#fffaff;stroke-width:1.8273375;stroke-linecap:round;stroke-linejoin:round;stroke-miterlimit:4;stroke-dasharray:none;stroke-opacity:1"
       d="m 232.93515,31.860598 0.44282,3.724618 34.56298,-1.667646"
       id="path5235"
       inkscape:connector-curvature="0" />
    <path
       style="fill:none;stroke:#ffffff;stroke-width:1.9370563;stroke-linecap:round;stroke-linejoin:round;stroke-miterlimit:4;stroke-dasharray:none;stroke-opacity:1"
       d="m 238.81221,30.682467 24.57164,-1.55611"
       id="path5237"
       inkscape:connector-curvature="0" />
    <path
       style="fill:none;stroke:#ffffff;stroke-width:1.87821412;stroke-linecap:round;stroke-linejoin:round;stroke-miterlimit:4;stroke-dasharray:none;stroke-opacity:1"
       d="m 258.24616,19.591786 -0.0595,7.553677 -15.75568,0.976037"
       id="path5245"
       inkscape:connector-curvature="0" />
    <path
       style="fill:none;stroke:#ffffff;stroke-width:1.27856696;stroke-linecap:round;stroke-linejoin:round;stroke-miterlimit:4;stroke-dasharray:none;stroke-opacity:1"
       d="m 260.26499,21.509195 4.86772,-4.988172"
       id="path5251"
       inkscape:connector-curvature="0" />
    <ellipse
       style="fill:#ffffff;fill-opacity:1;stroke:#ffffff;stroke-width:1.27856696;stroke-linecap:round;stroke-linejoin:round;stroke-miterlimit:4;stroke-dasharray:none;stroke-opacity:1"
       id="kamien2"
       cx="441.78061"
       cy="27.555996"
       rx="2.9783878"
       ry="1.2638361" />
    <ellipse
       style="fill:#ffffff;fill-opacity:1;stroke:#ffffff;stroke-width:1.27856696;stroke-linecap:round;stroke-linejoin:round;stroke-miterlimit:4;stroke-dasharray:none;stroke-opacity:1"
       id="balwan2"
       cx="391.57266"
       cy="27.555998"
       rx="5.8376398"
       ry="4.4234266" />
    <ellipse
       style="fill:#ffffff;fill-opacity:1;stroke:#ffffff;stroke-width:1.27856696;stroke-linecap:round;stroke-linejoin:round;stroke-miterlimit:4;stroke-dasharray:none;stroke-opacity:1"
       id="balwan1"
       cx="390.89886"
       cy="20.40666"
       rx="3.5740652"
       ry="2.3471243" />
    <path
       style="fill:#ffffff;fill-opacity:1;stroke:#fffdff;stroke-width:0.99684787;stroke-linecap:round;stroke-linejoin:round;stroke-miterlimit:4;stroke-dasharray:none;stroke-opacity:1"
       id="path1725"
       d="m 291.84461,36.225316 c -0.53196,0.100806 -1.06719,0.192539 -1.60434,0.278032 -0.42218,0.05312 -0.79031,-0.05522 -1.08184,-0.222365 -0.28886,-0.201605 -0.39146,-0.472473 -0.48535,-0.735249 -0.0679,-0.22161 -0.14268,-0.443728 -0.12343,-0.673859 0.0464,-0.197728 0.20047,-0.373643 0.36186,-0.546924 0.61374,-0.541572 1.50167,-0.969574 2.40492,-1.315523 0.3022,-0.105249 0.60854,-0.173422 0.94233,-0.152902 0.35448,0.04299 0.61355,0.176394 0.79612,0.360966 0.13066,0.168876 0.26357,0.335486 0.35627,0.515531 0.0793,0.16961 0.12254,0.346004 0.16568,0.521749 0.0447,0.188469 0.11412,0.373395 0.0329,0.566193 -0.41851,0.493098 -0.0824,0.118405 -1.83302,1.014055 -0.0457,0.02341 -0.20113,0.04003 -0.25423,0.03563 -0.0898,-0.0086 -0.21353,-0.05522 -0.28957,-0.08034 -0.28359,-0.115568 -0.47871,-0.276915 -0.62094,-0.46721 -0.13982,-0.165445 -0.243,-0.34097 -0.3206,-0.523402 -0.0842,-0.208895 -0.13866,-0.41586 -0.0697,-0.635273 0.27934,-0.562705 1.34098,-0.880108 2.00504,-1.216598 0.0455,-0.02302 0.10876,-0.02551 0.16174,-0.0406 0.0542,-0.01586 0.10643,-0.03401 0.1597,-0.05092 0.30355,-0.09276 0.63108,-0.16536 0.91128,-0.286947 0.13852,-0.04853 0.25936,-0.0919 0.38403,-0.154106 0.0455,-0.02264 0.18338,-0.08904 0.13915,-0.06554 -1.86573,0.994271 -2.03638,1.092327 -1.43856,0.754165 1.04966,0.03258 1.3194,-0.870325 2.16352,-1.112532 0.0698,-0.02006 0.29039,-0.06544 0.35946,-0.08006 0.37614,-0.09643 0.7455,-0.214741 1.14864,-0.20664 0.34475,0.03477 0.65318,0.119895 0.94841,0.226034 0.27503,0.118338 0.47415,0.28471 0.62167,0.470725 0.1302,0.192396 0.18246,0.403679 0.23437,0.611781 0.0521,0.203373 -0.001,0.386502 -0.16836,0.571905 -0.031,0.02513 -0.0549,0.05455 -0.0931,0.07557 -0.59355,0.326278 -1.19892,0.643919 -1.79978,0.964837 -0.0468,0.02503 -0.1904,0.0981 -0.14344,0.07318 0.50711,-0.270333 1.01367,-0.541095 1.52398,-0.808992 0.0919,-0.04825 -0.17256,0.104648 -0.25547,0.15894 -0.7375,0.490587 -1.49916,1.016693 -2.51401,1.237768 -0.33043,0.0813 -0.65246,0.07452 -0.97376,0.01538 -0.2971,-0.105928 -0.41752,-0.295744 -0.50642,-0.494665 -0.0834,-0.216709 -0.12729,-0.43919 -0.13553,-0.664908 0.0113,-0.202618 0.0708,-0.403239 0.18893,-0.596563 0.12969,-0.200343 0.30598,-0.388536 0.46635,-0.580712 0.40069,-0.393524 1.89997,-1.493055 2.30801,-0.793869 0.031,0.213518 -0.20832,0.378324 -0.433,0.530539 -0.7702,0.451532 -1.49679,0.987133 -2.47664,1.234958 -0.32984,0.08006 -0.52535,0.09741 -0.76403,-0.06133 -0.19081,-0.166965 -0.20362,-0.361749 -0.14942,-0.566536 0.0771,-0.228747 0.22636,-0.447644 0.38228,-0.662395 0.5081,-0.636687 1.21978,-0.853711 2.22144,-1.388912 0.25075,-0.130768 0.55091,-0.191518 0.85333,-0.245991 0.35164,-0.06009 0.70781,-0.103951 1.06298,-0.150667 0.3815,-0.03334 0.74339,0.02713 1.05826,0.14268 0.29752,0.100884 0.56744,0.231661 0.78885,0.390094 0.19018,0.150744 0.27218,0.336519 0.33617,0.52454 0.0532,0.180282 0.0926,0.362599 0.13099,0.544955 0.0638,0.210796 0.0793,0.422165 0.0138,0.63855 -0.32676,0.641473 -1.35225,0.970444 -2.15069,1.400424 -0.28147,0.116762 -0.59056,0.217407 -0.90105,0.298812 -0.33587,0.08856 -0.6758,0.146157 -1.02881,0.121108 -0.33588,-0.06114 -0.44066,-0.243898 -0.51706,-0.439629 -0.0865,-0.275978 -0.14645,-0.555951 -0.21044,-0.835168 -0.0471,-0.207013 -0.0945,-0.414026 -0.14232,-0.620962 -0.0566,-0.184973 -0.0908,-0.359982 0.0669,-0.536768 0.84082,-0.474164 1.53044,-1.084006 2.648,-1.047206 0.41311,4.02e-4 0.75108,0.109367 1.07407,0.245666 0.27376,0.138219 0.56145,0.259442 0.77021,0.438788 0.18646,0.177827 0.29605,0.376844 0.38622,0.583264 0.0812,0.231116 0.17852,0.46207 0.16241,0.704153 -0.0259,0.08187 -0.0599,0.182031 -0.17245,0.241596 -1.25413,0.663312 -1.16001,0.822099 -2.07357,0.980848 -0.31279,0.05837 -0.623,0.06859 -0.92014,0.0048 -0.30408,-0.07108 -0.51482,-0.177224 -0.68141,-0.347886 -0.18877,-0.20686 -0.28472,-0.439667 -0.36646,-0.673917 -0.0555,-0.19615 -0.0983,-0.392167 -0.22268,-0.573997 -0.13326,-0.135869 -0.28985,-0.241281 -0.5456,-0.278778 -0.0788,-0.0038 -0.14199,-0.01471 -0.2185,0.01146 -0.0273,0.0086 -0.0912,0.05264 -0.0672,0.04041 0.54411,-0.279036 1.07929,-0.565075 1.6278,-0.840633 0.0269,-0.01347 -0.0451,0.03334 -0.0596,0.05283 -0.0168,0.02293 -0.0218,0.04796 -0.0329,0.07194 -0.0386,0.188889 0.0101,0.375668 0.0498,0.559533 0.0133,0.253423 0.17178,0.454437 0.37346,0.660217 0.16985,0.196198 0.41609,0.356018 0.64178,0.524998 0.49993,0.512989 -1.02037,1.232266 -1.89926,1.115083 -0.25992,-0.06258 -0.45538,-0.157574 -0.62513,-0.291828 -0.20293,-0.190667 -0.31319,-0.411952 -0.40134,-0.63577 -0.0706,-0.192759 -0.11295,-0.390027 -0.15764,-0.586693 -0.0789,-0.204845 -0.0147,-0.395521 0.11523,-0.593439 0.60018,-0.560823 1.49766,-1.035618 2.40406,-1.378452 0.1905,-0.08378 0.40022,-0.0813 0.61034,-0.104991 0.0195,-0.0019 0.0371,-0.0097 0.0552,-0.01509 -0.55053,0.332019 -1.10108,0.664038 -1.65161,0.996067 -0.30851,0.0299 -0.61515,0.07098 -0.92162,0.111355 -0.1799,0.03668 -0.37815,0.03401 -0.55645,0.07413 -0.12242,0.02751 -0.21329,0.07671 -0.317,0.12429 0.51537,-0.269378 1.03075,-0.538736 1.54612,-0.808104 -0.24624,0.133366 -0.36213,0.297885 -0.40506,0.489536 -0.024,0.166287 -0.002,0.325714 0.11144,0.471308 0.16512,0.162369 0.32414,0.32771 0.49068,0.489583 0.21602,0.186081 0.41538,0.377646 0.69836,0.526517 0.23924,0.107524 0.51982,0.09989 0.81012,0.07557 0.30488,-0.03267 0.60756,-0.07671 0.91084,-0.116915 0.18679,-0.02092 0.37418,-0.05445 0.53796,-0.121968 0.0484,-0.02016 0.18041,-0.09267 0.1357,-0.06917 -1.61236,0.845945 -2.01954,1.135356 -1.47337,0.755311 0.17483,-0.159981 0.26143,-0.338391 0.32584,-0.521339 0.3172,-0.628012 1.39317,-1.022243 2.31753,-1.311453 0.32596,-0.136824 0.68991,-0.219709 1.05697,-0.291217 0.50391,-0.09777 0.80755,-0.04547 1.25828,0.06496 0.35599,0.08197 0.60097,0.231584 0.76587,0.43959 0.11271,0.169181 0.15439,0.354231 0.19747,0.536892 0.0398,0.177321 0.0781,0.354842 0.11776,0.532182 0.0664,0.186005 0.0627,0.358721 -0.0487,0.54399 -0.12255,0.232349 -0.42469,0.387773 -0.70674,0.549484 -0.99283,0.608227 -1.56501,0.981335 -2.70855,1.179272 -0.30799,0.04958 -0.61903,0.08789 -0.92941,0.128102 -0.26841,0.01595 -0.5454,0.10375 -0.81505,0.08923 -0.0641,-0.0038 -0.1243,-0.01729 -0.18646,-0.02589 -0.38029,-0.04519 -0.72958,-0.141954 -1.08208,-0.232215 -0.32947,-0.07815 -0.68158,-0.111106 -1.04048,-0.112357 -0.27025,-0.0321 -0.54373,-0.03057 -0.82117,-0.0096 -0.31818,0.03 -0.63401,0.07385 -0.95002,0.115128 -0.33676,0.04481 -0.6731,0.09124 -1.00986,0.135859 -0.31931,0.04433 -0.58273,0.107447 -0.87062,0.0019 -0.0618,-0.04605 -0.10578,-0.06487 -0.1194,-0.129697 -0.0149,-0.07595 0.0727,-0.173098 0.16646,-0.222642 0.60978,-0.322198 1.23284,-0.634194 1.84927,-0.95129 0.41633,-0.199991 0.90615,-0.316982 1.39024,-0.423923 0.3587,-0.05627 0.69571,-0.155797 1.04497,-0.233046 0.30578,-0.06487 0.6198,-0.106349 0.93245,-0.149559 0.35004,-0.04662 0.7001,-0.09324 1.05017,-0.139623 0.38865,-0.077 0.73006,-0.02379 1.06706,0.08311 0.2582,0.116437 0.49101,0.251866 0.72967,0.382824 0.22312,0.127395 0.48654,0.211188 0.79254,0.238186 0.2838,0.0067 0.57636,-0.01433 0.84919,-0.07939 0.69476,-0.274441 0.3297,-0.135076 -1.4448,0.762992 -0.0377,0.01901 0.0701,-0.04242 0.0986,-0.06687 0.0893,-0.07738 0.10003,-0.148106 0.1019,-0.236446 -0.0393,-0.173099 -0.0843,-0.34869 -0.16925,-0.51383 -0.10002,-0.150954 -0.21989,-0.271929 -0.48794,-0.305423 -0.28075,-9e-6 -0.54913,0.03535 -0.82866,0.01767 -0.37964,-0.03821 -0.76795,-0.07222 -1.15854,-0.06 -0.6136,0.126955 -2.27909,1.122678 1.40009,-0.767827 0.0238,-0.01194 -0.0477,0.02513 -0.0645,0.04117 -0.0435,0.04156 -0.0435,0.07929 -0.055,0.12578 0.0275,0.193314 0.13481,0.37587 0.20941,0.561922 0.27792,0.725047 -0.78976,0.857237 -1.84032,1.413475 -0.35547,0.08608 -0.72587,0.133795 -1.09378,0.183358 -0.33421,0.05302 -0.67774,0.07003 -1.01326,0.05178 -0.0426,-0.0048 -0.087,-0.0057 -0.12747,-0.01443 -0.69194,-0.153991 1.2057,-0.874423 1.57207,-1.066007 0.0365,-0.01911 0.0913,-0.01156 0.13683,-0.01796 0.0645,-0.0086 0.12823,-0.01892 0.19237,-0.02837 0.55546,-0.07853 1.11184,-0.153266 1.668,-0.228967 0.42718,-0.05273 0.84925,-0.104868 1.26164,-0.200774 0.0968,-0.04108 0.21007,-0.06353 0.30774,-0.10375 0.0427,-0.01758 0.15865,-0.0813 0.1194,-0.06066 -2.56297,1.343916 -1.86111,1.031796 -1.30748,0.639352 0.66198,-0.427038 0.34864,-0.230419 1.94315,-1.045945 0.18803,-0.09622 0.37489,-0.02312 0.51224,0.04939 0.74965,0.565227 -0.88788,0.948328 -1.59554,1.330512 -0.47341,0.112539 -0.97336,0.119389 -1.46258,0.140626 -0.4515,-0.0048 -0.91176,0.01099 -1.36094,-0.0096 -0.10644,-0.0048 -0.42128,-0.03907 -0.53445,-0.05092 -0.0727,-0.0067 -0.14552,-0.01385 -0.21824,-0.02073 0,0 1.59442,-0.963977 1.59442,-0.963977 v 0 c 0.072,0.0076 0.14397,0.01519 0.21596,0.02264 0.60713,0.06047 1.23138,0.05933 1.85309,0.04404 0.45913,-0.0236 0.99023,-0.02704 1.38987,-0.208761 -0.52814,0.288045 -1.06054,0.573004 -1.58436,0.864144 -0.0416,0.02312 0.10876,-0.03353 0.12988,-0.06535 0.0412,-0.062 -0.0404,-0.117268 -0.0957,-0.15637 -0.082,-0.02732 -0.11461,-0.01863 -0.2017,0.01615 -0.0389,0.01557 -0.14753,0.06993 -0.1126,0.05082 0.50792,-0.27616 1.02125,-0.548356 1.53187,-0.822539 -0.0468,0.0256 -0.0936,0.05121 -0.14056,0.07681 -0.74283,0.491006 -1.49029,1.045754 -2.50813,1.285095 -0.41886,0.08417 -0.84924,0.126984 -1.27572,0.185967 -0.5559,0.07175 -1.11251,0.143654 -1.66248,0.237822 -0.0622,0.01309 -0.12595,0.02255 -0.18671,0.0385 -0.0391,0.01003 -0.14289,0.05636 -0.11171,0.03821 0.52247,-0.306789 1.08277,-0.588376 1.58905,-0.905616 0.0486,-0.03048 -0.25448,-0.05407 0.0532,-0.0279 0.32572,2.48e-4 0.64936,-0.01997 0.97074,-0.07404 0.3521,-0.05054 0.72193,-0.09381 1.03326,-0.223339 -0.51901,0.281304 -1.04288,0.559078 -1.55704,0.843913 -0.0325,0.01787 0.0788,-0.02379 0.11032,-0.04242 0.14132,-0.08388 0.0904,-0.22141 0.0556,-0.316476 -0.075,-0.198663 -0.17207,-0.392568 -0.2492,-0.590792 -0.0172,-0.645982 1.06705,-1.162888 2.08365,-1.210044 0.39318,0.0076 0.78051,0.03573 1.16843,0.06477 0.28963,-1.05e-4 0.58651,-0.04653 0.86685,0.0029 0.30182,0.07385 0.47447,0.210385 0.60625,0.392855 0.10312,0.172659 0.1372,0.361731 0.20138,0.542663 0.0127,0.06363 0.0326,0.140425 0.0184,0.205961 -0.007,0.02923 -0.0744,0.174283 -0.11512,0.196944 -1.67141,0.931075 -1.09141,0.783446 -1.96492,0.986609 -0.30591,0.04442 -0.61869,0.06936 -0.92248,0.03535 -0.3266,-0.05044 -0.61575,-0.146932 -0.8612,-0.286354 -0.22551,-0.123105 -0.44224,-0.253987 -0.69165,-0.358893 -0.32063,-0.08713 -0.62565,-0.08885 -0.97627,-0.02264 -0.34939,0.04576 -0.69899,0.09076 -1.04734,0.140837 -0.30753,0.04461 -0.6153,0.09152 -0.9135,0.162169 -0.34367,0.08149 -0.68677,0.162073 -1.03751,0.228269 -0.47962,0.114335 -0.94187,0.251904 -1.36155,0.445361 0.50528,-0.274049 1.0144,-0.545328 1.51589,-0.822157 0.063,-0.03468 -0.12899,0.06716 -0.19258,0.101486 -0.0293,0.01576 -0.0848,0.0106 -0.10355,0.03153 -0.006,0.0057 0.0114,0.01175 0.0175,0.01758 0.24565,0.04738 0.52062,-0.03993 0.77185,-0.06009 0.33615,-0.04471 0.67225,-0.08951 1.00847,-0.13391 0.32233,-0.04261 0.64575,-0.08636 0.97148,-0.107113 0.2828,-0.01118 0.55885,0.0029 0.83633,0.02331 0.37554,0.015 0.74453,0.05656 1.08651,0.145737 0.34037,0.08541 0.67946,0.17562 1.05083,0.208054 0.32043,0.0067 0.63526,-0.06086 0.95333,-0.09616 0.30575,-0.03984 0.6124,-0.07834 0.91357,-0.134731 0.17112,-0.03458 0.34117,-0.06974 0.5029,-0.122274 0.65622,-0.213032 1.58909,-0.886308 -1.2013,0.685676 0.26692,-0.139288 0.60144,-0.295945 0.75514,-0.490558 0.13496,-0.203506 0.19644,-0.266291 0.11158,-0.488656 -0.0398,-0.177187 -0.0793,-0.354403 -0.1165,-0.531934 -0.0385,-0.171407 -0.0708,-0.345394 -0.1613,-0.507706 -0.13085,-0.18698 -0.34913,-0.304668 -0.6627,-0.371676 -0.40199,-0.0919 -0.73385,-0.102555 -1.16159,-8.58e-4 -0.35873,0.0792 -0.70098,0.180444 -1.02809,0.307094 -0.70925,0.259805 -1.32855,0.694972 1.24127,-0.715178 0.0357,-0.01949 -0.0826,0.02981 -0.117,0.05025 -0.0716,0.04261 -0.0935,0.08894 -0.13164,0.142843 -0.0916,0.187342 -0.11625,0.383903 -0.28768,0.558587 -0.46826,0.611982 -1.56078,1.068721 -2.59317,1.206109 -0.30962,0.04299 -0.61979,0.0899 -0.9336,0.108383 -0.33887,0.01022 -0.65351,-0.01911 -0.91576,-0.151269 -0.28923,-0.161013 -0.50898,-0.356304 -0.73365,-0.552693 -0.17045,-0.164538 -0.33605,-0.331245 -0.50753,-0.49522 -0.14354,-0.16258 -0.19171,-0.339012 -0.17899,-0.530577 0.0173,-0.215009 0.0896,-0.401367 0.31764,-0.578249 1.5698,-0.825682 1.37593,-0.961178 2.74972,-1.125248 0.31935,-0.04041 0.64162,-0.09286 0.96468,-0.097 -0.49572,0.332641 -0.98055,0.671672 -1.48717,0.997892 -0.0157,0.0108 -0.0444,9.55e-4 -0.0665,0.0029 -0.0347,0.0029 -0.069,0.0076 -0.10299,0.01328 -0.15296,0.02809 -0.29501,0.07461 -0.4269,0.132554 -0.64886,0.317393 -0.32683,0.161921 1.39847,-0.757929 0.0469,-0.02503 -0.0925,0.0514 -0.13581,0.07901 -0.0842,0.05379 -0.16042,0.112148 -0.24206,0.167376 -0.0349,0.0235 -0.0697,0.04681 -0.10455,0.07012 -0.16571,0.165494 -0.26124,0.341582 -0.19234,0.528256 0.0444,0.193217 0.0867,0.386855 0.14739,0.577732 0.0731,0.207596 0.16208,0.415287 0.34812,0.591777 0.13566,0.103005 0.29452,0.192338 0.51943,0.212582 0.67411,-0.07318 2.14787,-1.195198 -1.45265,0.848792 -0.027,0.01538 0.0971,-0.01223 0.0949,-0.03401 -10e-4,-0.01777 -0.0212,-0.0321 -0.0318,-0.04815 -0.22243,-0.177082 -0.47911,-0.338496 -0.64861,-0.541114 -0.21855,-0.21603 -0.41346,-0.428767 -0.4297,-0.698172 -0.0452,-0.194498 -0.095,-0.389665 -0.0904,-0.58894 5.5e-4,-0.0086 0.0129,-0.169916 0.0302,-0.179919 0.87523,-0.509101 1.21538,-1.066141 2.14507,-0.929231 0.28792,0.0705 0.49,0.194077 0.64973,0.357507 0.14137,0.187601 0.20016,0.388939 0.24565,0.597002 0.0707,0.221496 0.15203,0.443183 0.32653,0.639228 0.14235,0.143025 0.32135,0.228766 0.58782,0.27748 0.27767,0.03372 0.55829,0.0019 0.83209,-0.06019 0.72878,-0.18782 1.26838,-0.65803 -1.33883,0.771905 -0.0706,0.03869 0.43122,-0.185689 0.26165,-0.159475 0.0785,-0.227953 -0.0503,-0.448284 -0.11284,-0.666837 -0.079,-0.193648 -0.17799,-0.378287 -0.34667,-0.546217 -0.18844,-0.169153 -0.46661,-0.277995 -0.71787,-0.407997 -0.30146,-0.12044 -0.61793,-0.201663 -0.99619,-0.190409 -0.96304,0.04653 -1.98088,0.815994 0.79805,-0.684177 -0.2993,0.11166 -0.21753,0.260951 -0.17592,0.437775 0.0469,0.207901 0.0935,0.41586 0.13651,0.624268 0.0598,0.275845 0.11737,0.552311 0.19951,0.824994 0.0509,0.140234 0.0851,0.299891 0.35558,0.316943 0.33078,-0.0067 0.64587,-0.07337 0.95198,-0.162809 0.29905,-0.09362 0.60658,-0.18568 0.86112,-0.326163 -2.61325,1.41272 -1.58972,1.00756 -1.12583,0.454523 0.10053,-0.200927 0.0958,-0.398855 0.0313,-0.597891 -0.0417,-0.179365 -0.0791,-0.359332 -0.12678,-0.537885 -0.0505,-0.168264 -0.107,-0.33841 -0.27134,-0.475425 -0.20553,-0.148403 -0.46397,-0.265146 -0.74187,-0.3581 -0.29661,-0.09095 -0.61413,-0.129468 -0.95604,-0.07968 -0.35178,0.04719 -0.70469,0.09381 -1.0503,0.161692 -0.29082,0.0642 -0.56085,0.149835 -0.79607,0.281319 0.51976,-0.280278 1.03958,-0.560546 1.55935,-0.840805 -0.10399,0.05694 -0.12654,0.06286 -0.20844,0.134856 -0.0976,0.08569 -0.1605,0.184705 -0.26963,0.266015 -0.16551,0.204643 -0.31333,0.417751 -0.40932,0.6366 -0.0752,0.163364 -0.10632,0.320164 0.0371,0.464048 0.15612,0.09602 0.40578,-0.0057 0.58467,-0.04958 0.11915,-0.03955 0.14901,-0.04653 0.26094,-0.09553 0.0433,-0.01901 0.16647,-0.08178 0.12641,-0.06009 -2.72514,1.471712 -1.88259,1.000538 -1.29134,0.690597 0.20239,-0.12813 0.43288,-0.252765 0.54094,-0.420704 0.0101,-0.03516 0.003,-0.08159 -0.0818,-0.07165 -0.0247,0.0029 -0.0862,0.03401 -0.0668,0.0235 1.48906,-0.816224 2.14536,-1.098231 1.44172,-0.791481 -0.17789,0.182527 -0.3277,0.378162 -0.47828,0.568561 -0.14041,0.177923 -0.20343,0.359248 -0.24237,0.551873 -10e-4,0.217148 0.033,0.429005 0.10999,0.637967 0.0589,0.15358 0.12203,0.325455 0.37016,0.393887 0.30222,0.03458 0.58675,0.01242 0.88031,-0.0707 0.11915,-0.03315 0.18921,-0.0491 0.30016,-0.09381 0.0465,-0.01863 0.17512,-0.08436 0.13337,-0.06152 -2.77196,1.507718 -1.83123,1.031988 -1.30769,0.680298 0.72919,-0.469655 0.65175,-0.386799 2.067,-1.140552 0.0472,-0.02532 0.19059,-0.100149 0.14345,-0.0748 -0.51229,0.276656 -1.0269,0.551575 -1.53901,0.828376 -0.0364,0.01968 0.0746,-0.03793 0.11183,-0.05694 0.20697,-0.148413 0.29174,-0.299185 0.26386,-0.489298 -0.0479,-0.196761 -0.0916,-0.396647 -0.2022,-0.581696 -0.12126,-0.166536 -0.29451,-0.314357 -0.54111,-0.414925 -0.27036,-0.09028 -0.55425,-0.169945 -0.8745,-0.17455 -0.38162,0.032 -0.73369,0.150447 -1.09632,0.234326 -0.78925,0.210327 -2.08188,1.0732 0.87507,-0.560078 -0.78322,0.441683 -1.53683,0.918121 -2.45868,1.23663 -0.30419,0.09631 -0.61186,0.187075 -0.91866,0.279524 -0.71261,0.231545 -1.37146,0.699653 1.25686,-0.729727 0.0372,-0.02025 -0.0808,0.03573 -0.1165,0.05675 -0.11372,0.0664 -0.0944,0.06468 -0.15029,0.153218 -0.13174,0.197507 -0.0682,0.383989 0.007,0.578315 0.0682,0.177216 0.15988,0.348614 0.29912,0.506884 0.11296,0.166718 0.27393,0.308748 0.53031,0.399056 0.11662,0.02522 0.17191,0.03372 0.28804,-0.0096 0.0347,-0.01338 0.13046,-0.06028 0.0999,-0.04347 -1.51649,0.831833 -2.15987,1.098841 -1.48577,0.815497 0.19637,-0.153121 0.0718,-0.334121 0.0414,-0.503024 -0.0403,-0.170214 -0.0798,-0.341048 -0.14802,-0.506761 -0.0804,-0.172993 -0.20489,-0.331054 -0.32387,-0.493148 -0.14388,-0.154094 -0.36283,-0.257701 -0.66417,-0.267321 -0.30359,0.01605 -0.58666,0.09991 -0.84584,0.207213 -0.6209,0.282753 -1.48465,0.792532 1.25255,-0.68111 0.17042,-0.09162 -0.52469,0.238109 -0.32877,0.186444 -0.15781,0.162599 -0.32391,0.319314 -0.41263,0.501182 -0.0741,0.218639 0.031,0.428976 0.0788,0.641224 0.0757,0.238377 0.1516,0.489517 0.4081,0.673974 0.26912,0.141696 0.57674,0.200307 0.94235,0.136452 0.5373,-0.08541 1.07292,-0.177197 1.6015,-0.287157 0,0 -1.52984,1.009299 -1.52984,1.009299 z"
       inkscape:connector-curvature="0"
       inkscape:transform-center-x="0.83980845"
       inkscape:transform-center-y="-3.3190576" />
    <ellipse
       style="fill:#ffffff;fill-opacity:1;stroke:#ffffff;stroke-width:1.27856696;stroke-linecap:round;stroke-linejoin:round;stroke-miterlimit:4;stroke-dasharray:none;stroke-opacity:1"
       id="kamien1"
       cx="197.48026"
       cy="39.556671"
       rx="2.9783878"
       ry="1.2638361" />
    <path
       style="fill:#000000;stroke:#000000;stroke-width:0.26533005px;stroke-linecap:butt;stroke-linejoin:miter;stroke-opacity:0;fill-opacity:0"
       d="m 50.942467,37.425999 h 8.659712 l -9.140807,-19.112865 -7.697522,19.411503 7.096154,-0.149321 -0.360822,9.855073 2.646022,0.149317 -0.120272,-10.303027 z"
       id="drzewo"
       inkscape:connector-curvature="0" />
    <path
       style="fill:#000000;stroke:#000000;stroke-width:0.26533008px;stroke-linecap:butt;stroke-linejoin:miter;stroke-opacity:0;fill-opacity:0"
       d="m 132.31838,33.971921 h 8.65971 l -9.14081,-19.112865 -7.69752,19.411503 7.09615,-0.149321 -0.36082,9.855072 2.64602,0.149318 -0.12027,-10.303027 z"
       id="drzewo-8"
       inkscape:connector-curvature="0" />
    <path
       style="fill:#000000;stroke:#000000;stroke-width:0.26533008px;stroke-linecap:butt;stroke-linejoin:miter;stroke-opacity:0;fill-opacity:0"
       d="m 213.58466,29.722442 h 8.65971 l -9.14081,-19.112865 -7.69752,19.411503 7.09615,-0.149321 -0.36082,9.855072 2.64602,0.149318 -0.12027,-10.303027 z"
       id="drzewo-5"
       inkscape:connector-curvature="0" />
    <path
       style="fill:#000000;stroke:#000000;stroke-width:0.26533011px;stroke-linecap:butt;stroke-linejoin:miter;stroke-opacity:0;fill-opacity:0"
       d="m 318.58474,24.868084 h 8.65971 l -9.14081,-19.1128647 -7.69752,19.4115027 7.09615,-0.149321 -0.36082,9.855072 2.64602,0.149318 -0.12027,-10.303027 z"
       id="drzewo-5-8"
       inkscape:connector-curvature="0" />
    <path
       style="fill:#000000;stroke:#000000;stroke-width:0.26533011px;stroke-linecap:butt;stroke-linejoin:miter;stroke-opacity:0;fill-opacity:0"
       d="m 424.1767,20.073906 h 8.65971 L 423.6956,0.96104035 415.99808,20.372544 l 7.09615,-0.149321 -0.36082,9.855072 2.64602,0.149318 -0.12027,-10.303027 z"
       id="drzewo-5-88"
       inkscape:connector-curvature="0"
       inkscape:transform-center-x="0.0067631457"
       inkscape:transform-center-y="0.62993313" />
    <ellipse
       style="fill:#ffffff;fill-opacity:1;stroke:#ffffff;stroke-width:1.27856696;stroke-linecap:round;stroke-linejoin:round;stroke-miterlimit:4;stroke-dasharray:none;stroke-opacity:1"
       id="kamien1-0"
       cx="108.51143"
       cy="43.829506"
       rx="2.9783878"
       ry="1.2638361" />
  </g>
  <g
     inkscape:groupmode="layer"
     id="layer8"
     inkscape:label="sled2" />
  <g
     inkscape:groupmode="layer"
     id="layer7"
     inkscape:label="sled1" />
  <g
     inkscape:groupmode="layer"
     id="layer6"
     inkscape:label="body" />
  <g
     inkscape:groupmode="layer"
     id="layer5"
     inkscape:label="arm" />
  <g
     inkscape:groupmode="layer"
     id="layer4"
     inkscape:label="head" />
  <g
     inkscape:groupmode="layer"
     id="layer3"
     inkscape:label="stok" />
</svg>
