<?xml version="1.0" encoding="UTF-8" standalone="no"?>
<!-- Created with Inkscape (http://www.inkscape.org/) -->

<svg
   xmlns:dc="http://purl.org/dc/elements/1.1/"
   xmlns:cc="http://creativecommons.org/ns#"
   xmlns:rdf="http://www.w3.org/1999/02/22-rdf-syntax-ns#"
   xmlns:svg="http://www.w3.org/2000/svg"
   xmlns="http://www.w3.org/2000/svg"
   xmlns:sodipodi="http://sodipodi.sourceforge.net/DTD/sodipodi-0.dtd"
   xmlns:inkscape="http://www.inkscape.org/namespaces/inkscape"
   width="210mm"
   height="297mm"
   viewBox="0 0 210 297"
   version="1.1"
   id="svg923"
   inkscape:version="0.92.4 (5da689c313, 2019-01-14)"
   sodipodi:docname="tlo.svg">
  <defs
     id="defs917" />
  <sodipodi:namedview
     id="base"
     pagecolor="#ffffff"
     bordercolor="#666666"
     borderopacity="1.0"
     inkscape:pageopacity="0.0"
     inkscape:pageshadow="2"
     inkscape:zoom="0.98994949"
     inkscape:cx="-1135.7907"
     inkscape:cy="348.61431"
     inkscape:document-units="mm"
     inkscape:current-layer="layer1"
     showgrid="false"
     inkscape:window-width="2400"
     inkscape:window-height="1271"
     inkscape:window-x="2391"
     inkscape:window-y="-9"
     inkscape:window-maximized="1" />
  <metadata
     id="metadata920">
    <rdf:RDF>
      <cc:Work
         rdf:about="">
        <dc:format>image/svg+xml</dc:format>
        <dc:type
           rdf:resource="http://purl.org/dc/dcmitype/StillImage" />
        <dc:title></dc:title>
      </cc:Work>
    </rdf:RDF>
  </metadata>
  <g
     inkscape:label="Layer 1"
     inkscape:groupmode="layer"
     id="layer1">
    <path
       style="fill:#ffffff;fill-opacity:1;stroke:#fffdff;stroke-width:0.90830427;stroke-linecap:round;stroke-linejoin:round;stroke-miterlimit:4;stroke-dasharray:none;stroke-opacity:1"
       id="path1725"
       d="m -262.00327,206.45139 c -0.42194,0.10552 -0.84645,0.20154 -1.27252,0.29103 -0.33484,0.0556 -0.62684,-0.0578 -0.85807,-0.23276 -0.22911,-0.21103 -0.31049,-0.49456 -0.38496,-0.76962 -0.0539,-0.23197 -0.11317,-0.46447 -0.0979,-0.70536 0.0368,-0.20697 0.15901,-0.39111 0.28702,-0.57249 0.48679,-0.56689 1.19107,-1.0149 1.90749,-1.37702 0.2397,-0.11017 0.48268,-0.18153 0.74742,-0.16005 0.28117,0.045 0.48665,0.18464 0.63146,0.37784 0.10363,0.17677 0.20906,0.35117 0.28258,0.53963 0.063,0.17754 0.0972,0.36218 0.13142,0.54614 0.0354,0.19728 0.0905,0.39085 0.0261,0.59266 -0.33196,0.51615 -0.0654,0.12394 -1.45388,1.06146 -0.0362,0.0245 -0.15954,0.0419 -0.20166,0.0373 -0.0712,-0.009 -0.16937,-0.0578 -0.22967,-0.0841 -0.22494,-0.12097 -0.3797,-0.28986 -0.49251,-0.48905 -0.11091,-0.17318 -0.19274,-0.35691 -0.25429,-0.54787 -0.0668,-0.21866 -0.10999,-0.4353 -0.0553,-0.66497 0.22156,-0.58901 1.06361,-0.92125 1.59033,-1.27347 0.0361,-0.0241 0.0863,-0.0267 0.12828,-0.0425 0.043,-0.0166 0.0844,-0.0356 0.12666,-0.0533 0.24078,-0.0971 0.50056,-0.17309 0.7228,-0.30036 0.10988,-0.0508 0.20572,-0.0962 0.3046,-0.16131 0.0361,-0.0237 0.14546,-0.0932 0.11037,-0.0686 -1.47983,1.04075 -1.61518,1.14339 -1.14101,0.78942 0.83255,0.0341 1.0465,-0.91101 1.71603,-1.16454 0.0554,-0.021 0.23032,-0.0685 0.28511,-0.0838 0.29834,-0.10094 0.5913,-0.22478 0.91106,-0.2163 0.27344,0.0364 0.51808,0.1255 0.75225,0.2366 0.21813,0.12387 0.37607,0.29802 0.49308,0.49273 0.10327,0.20139 0.14472,0.42255 0.18589,0.64038 0.0413,0.21288 -10e-4,0.40457 -0.13354,0.59864 -0.0246,0.0263 -0.0435,0.0571 -0.0739,0.0791 -0.47079,0.34153 -0.95094,0.67402 -1.42751,1.00994 -0.0371,0.0262 -0.15103,0.10268 -0.11378,0.0766 0.40222,-0.28297 0.804,-0.56639 1.20877,-0.84681 0.0729,-0.0505 -0.13688,0.10954 -0.20264,0.16637 -0.58495,0.51352 -1.18907,1.06422 -1.99402,1.29563 -0.26208,0.0851 -0.51751,0.078 -0.77235,0.0161 -0.23565,-0.11088 -0.33116,-0.30957 -0.40167,-0.51779 -0.0662,-0.22684 -0.10097,-0.45972 -0.1075,-0.69599 0.009,-0.21209 0.0562,-0.42209 0.14985,-0.62445 0.10287,-0.20971 0.2427,-0.4067 0.36989,-0.60786 0.31782,-0.41192 1.50699,-1.56285 1.83064,-0.83098 0.0246,0.2235 -0.16523,0.39601 -0.34345,0.55534 -0.61089,0.47264 -1.1872,1.03328 -1.96438,1.29269 -0.26161,0.0838 -0.41669,0.10196 -0.606,-0.0642 -0.15134,-0.17477 -0.1615,-0.37866 -0.11851,-0.59302 0.0612,-0.23944 0.17954,-0.46857 0.30321,-0.69336 0.40301,-0.66645 0.96749,-0.89362 1.76197,-1.45384 0.19888,-0.13688 0.43696,-0.20047 0.67682,-0.25749 0.27891,-0.0629 0.56142,-0.10881 0.84313,-0.15771 0.30259,-0.0349 0.58962,0.0284 0.83937,0.14935 0.23598,0.1056 0.45008,0.24249 0.62568,0.40833 0.15085,0.15779 0.21589,0.35225 0.26664,0.54906 0.0422,0.18871 0.0735,0.37955 0.1039,0.57043 0.0506,0.22065 0.063,0.4419 0.011,0.6684 -0.25917,0.67146 -1.07256,1.01581 -1.70584,1.46589 -0.22326,0.12222 -0.46842,0.22757 -0.71469,0.31278 -0.2664,0.0927 -0.53602,0.15299 -0.81601,0.12677 -0.26642,-0.064 -0.34953,-0.2553 -0.41012,-0.46018 -0.0687,-0.28888 -0.11616,-0.58194 -0.16691,-0.87421 -0.0374,-0.21669 -0.075,-0.43338 -0.11288,-0.64999 -0.0449,-0.19362 -0.072,-0.37681 0.0531,-0.56186 0.66691,-0.49633 1.21388,-1.13468 2.1003,-1.09616 0.32766,4.2e-4 0.59573,0.11448 0.85191,0.25715 0.21714,0.14468 0.44532,0.27157 0.61091,0.4593 0.14789,0.18614 0.23481,0.39446 0.30633,0.61053 0.0644,0.24192 0.1416,0.48367 0.12882,0.73707 -0.0206,0.0857 -0.0475,0.19054 -0.13679,0.25289 -0.99473,0.69432 -0.92007,0.86053 -1.64467,1.0267 -0.24809,0.0611 -0.49415,0.0718 -0.72983,0.005 -0.24118,-0.0744 -0.40833,-0.18551 -0.54047,-0.36415 -0.14972,-0.21653 -0.22583,-0.46022 -0.29066,-0.70542 -0.0441,-0.20532 -0.0779,-0.4105 -0.17663,-0.60083 -0.1057,-0.14222 -0.22989,-0.25256 -0.43275,-0.29181 -0.0624,-0.004 -0.11262,-0.0154 -0.1733,0.012 -0.0216,0.009 -0.0723,0.0551 -0.0533,0.0423 0.43157,-0.29208 0.85606,-0.59149 1.29112,-0.87993 0.0213,-0.0141 -0.0358,0.0349 -0.0473,0.0553 -0.0134,0.024 -0.0173,0.0502 -0.0261,0.0753 -0.0306,0.19772 0.008,0.39323 0.0395,0.58569 0.0105,0.26527 0.13624,0.47568 0.29621,0.69108 0.13472,0.20537 0.33003,0.37266 0.50904,0.54954 0.39652,0.53697 -0.80933,1.28987 -1.50642,1.16721 -0.20616,-0.0655 -0.3612,-0.16494 -0.49584,-0.30547 -0.16096,-0.19958 -0.24841,-0.43121 -0.31832,-0.66549 -0.056,-0.20177 -0.0896,-0.40826 -0.12504,-0.61412 -0.0626,-0.21442 -0.0117,-0.41401 0.0914,-0.62118 0.47603,-0.58704 1.18788,-1.08403 1.90681,-1.44289 0.1511,-0.0877 0.31744,-0.0851 0.4841,-0.1099 0.0154,-0.002 0.0294,-0.0102 0.0438,-0.0158 -0.43667,0.34754 -0.87334,0.69508 -1.31001,1.04263 -0.24469,0.0313 -0.48791,0.0743 -0.73099,0.11656 -0.14269,0.0384 -0.29995,0.0356 -0.44136,0.0776 -0.0971,0.0288 -0.16917,0.0803 -0.25144,0.1301 0.40878,-0.28197 0.81756,-0.56392 1.22634,-0.84588 -0.19531,0.1396 -0.28723,0.31181 -0.32129,0.51242 -0.0191,0.17406 -0.002,0.34094 0.0884,0.49334 0.13096,0.16996 0.25709,0.34303 0.38919,0.51247 0.17134,0.19478 0.32946,0.3953 0.55391,0.55113 0.18976,0.11255 0.4123,0.10456 0.64256,0.0791 0.24182,-0.0342 0.48189,-0.0803 0.72244,-0.12238 0.14816,-0.0219 0.29679,-0.057 0.4267,-0.12767 0.0384,-0.0211 0.14309,-0.097 0.10762,-0.0724 -1.27885,0.88549 -1.60182,1.18843 -1.16862,0.79062 0.13867,-0.16746 0.20736,-0.35421 0.25844,-0.54571 0.2516,-0.65737 1.10502,-1.07003 1.83818,-1.37276 0.25855,-0.14322 0.54722,-0.22998 0.83836,-0.30483 0.39969,-0.10234 0.64052,-0.0476 0.99802,0.068 0.28237,0.0858 0.47667,0.24241 0.60746,0.46014 0.0894,0.17709 0.12246,0.37079 0.15663,0.56199 0.0316,0.18561 0.062,0.37143 0.0934,0.55706 0.0527,0.1947 0.0498,0.37549 -0.0387,0.56942 -0.0972,0.24321 -0.33684,0.4059 -0.56056,0.57517 -0.78748,0.63666 -1.24131,1.02721 -2.14832,1.2344 -0.2443,0.0519 -0.491,0.092 -0.73718,0.13409 -0.2129,0.0167 -0.43259,0.1086 -0.64647,0.0934 -0.0507,-0.004 -0.0986,-0.0181 -0.14789,-0.0271 -0.30164,-0.0473 -0.57868,-0.14859 -0.85827,-0.24307 -0.26132,-0.0818 -0.5406,-0.1163 -0.82527,-0.11761 -0.21435,-0.0336 -0.43127,-0.032 -0.65133,-0.01 -0.25236,0.0314 -0.50287,0.0773 -0.75351,0.12051 -0.2671,0.0469 -0.53389,0.0955 -0.801,0.14221 -0.25325,0.0464 -0.46219,0.11247 -0.69054,0.002 -0.0491,-0.0482 -0.0839,-0.0679 -0.0947,-0.13576 -0.0119,-0.0795 0.0576,-0.18119 0.13203,-0.23305 0.48365,-0.33726 0.97785,-0.66384 1.46678,-0.99576 0.33021,-0.20934 0.71872,-0.3318 1.10269,-0.44374 0.28451,-0.0589 0.55181,-0.16308 0.82883,-0.24394 0.24253,-0.0679 0.49161,-0.11132 0.73959,-0.15655 0.27764,-0.0488 0.55529,-0.0976 0.83296,-0.14615 0.30826,-0.0806 0.57905,-0.0249 0.84635,0.087 0.20479,0.12188 0.38944,0.26364 0.57874,0.40072 0.17698,0.13335 0.38592,0.22106 0.62862,0.24932 0.22509,0.007 0.45714,-0.015 0.67355,-0.0831 0.55105,-0.28727 0.26149,-0.14139 -1.14597,0.79866 -0.0299,0.0199 0.0557,-0.0444 0.0782,-0.07 0.0708,-0.081 0.0793,-0.15503 0.0808,-0.2475 -0.0312,-0.18119 -0.0669,-0.36499 -0.13424,-0.53785 -0.0793,-0.15801 -0.17441,-0.28464 -0.38702,-0.3197 -0.22268,-1e-5 -0.43555,0.037 -0.65726,0.0185 -0.30113,-0.04 -0.60911,-0.0756 -0.91891,-0.0628 -0.48669,0.13289 -1.80769,1.17516 1.11049,-0.80372 0.0189,-0.0125 -0.0378,0.0263 -0.0512,0.0431 -0.0345,0.0435 -0.0345,0.083 -0.0436,0.13166 0.0218,0.20235 0.10693,0.39344 0.16609,0.58819 0.22044,0.75894 -0.62641,0.89731 -1.45967,1.47955 -0.28194,0.0901 -0.57574,0.14005 -0.86754,0.19193 -0.2651,0.0555 -0.53757,0.0733 -0.80368,0.0542 -0.0338,-0.005 -0.069,-0.006 -0.10112,-0.0151 -0.54882,-0.16119 0.95633,-0.9153 1.24691,-1.11584 0.0289,-0.02 0.0725,-0.0121 0.10854,-0.0188 0.0511,-0.009 0.1017,-0.0198 0.15257,-0.0297 0.44058,-0.0822 0.88188,-0.16043 1.323,-0.23967 0.33883,-0.0552 0.67361,-0.10977 1.00069,-0.21016 0.0768,-0.043 0.16662,-0.0665 0.24409,-0.1086 0.0339,-0.0184 0.12584,-0.0851 0.0947,-0.0635 -2.03285,1.40674 -1.47616,1.08003 -1.03705,0.66924 0.52507,-0.447 0.27654,-0.24119 1.54125,-1.09484 0.14914,-0.10072 0.29734,-0.0242 0.40629,0.0517 0.5946,0.59165 -0.70424,0.99266 -1.26552,1.39271 -0.3755,0.1178 -0.77204,0.12497 -1.16008,0.1472 -0.35811,-0.005 -0.72317,0.0115 -1.07945,-0.01 -0.0844,-0.005 -0.33414,-0.0409 -0.4239,-0.0533 -0.0576,-0.007 -0.11542,-0.0145 -0.1731,-0.0217 0,0 1.26463,-1.00904 1.26463,-1.00904 v 0 c 0.0571,0.008 0.1142,0.0159 0.1713,0.0237 0.48155,0.0633 0.97668,0.0621 1.4698,0.0461 0.36417,-0.0247 0.78542,-0.0283 1.1024,-0.21852 -0.4189,0.30151 -0.84118,0.59979 -1.25666,0.90454 -0.033,0.0242 0.0863,-0.0351 0.10302,-0.0684 0.0326,-0.0649 -0.0321,-0.12275 -0.0759,-0.16368 -0.065,-0.0286 -0.0909,-0.0195 -0.15998,0.0169 -0.0309,0.0163 -0.11701,0.0732 -0.0893,0.0532 0.40286,-0.28907 0.81001,-0.57399 1.21502,-0.86099 -0.0371,0.0268 -0.0743,0.0536 -0.11149,0.0804 -0.58919,0.51396 -1.18204,1.09464 -1.98935,1.34517 -0.33224,0.0881 -0.6736,0.13292 -1.01187,0.19466 -0.44092,0.0751 -0.88239,0.15037 -1.31861,0.24894 -0.0493,0.0137 -0.0999,0.0236 -0.1481,0.0403 -0.031,0.0105 -0.11334,0.059 -0.0886,0.04 0.41441,-0.32113 0.85881,-0.61588 1.26038,-0.94795 0.0385,-0.0319 -0.20184,-0.0566 0.0422,-0.0292 0.25835,2.6e-4 0.51505,-0.0209 0.76996,-0.0775 0.27927,-0.0529 0.5726,-0.0982 0.81954,-0.23378 -0.41166,0.29445 -0.82717,0.58521 -1.23499,0.88336 -0.0259,0.0187 0.0625,-0.0249 0.0875,-0.0444 0.1121,-0.0878 0.0717,-0.23176 0.0441,-0.33127 -0.0595,-0.20795 -0.13649,-0.41092 -0.19767,-0.61841 -0.0136,-0.67618 0.84636,-1.21725 1.65269,-1.26661 0.31185,0.008 0.61908,0.0374 0.92676,0.0678 0.22972,-1.1e-4 0.46519,-0.0487 0.68754,0.003 0.23941,0.0773 0.37635,0.22022 0.48088,0.41122 0.0818,0.18073 0.10881,0.37864 0.15972,0.56803 0.01,0.0666 0.0259,0.14699 0.0146,0.21559 -0.005,0.0306 -0.059,0.18243 -0.0913,0.20615 -1.3257,0.9746 -0.86567,0.82007 -1.55851,1.03273 -0.24264,0.0465 -0.49072,0.0726 -0.73168,0.037 -0.25905,-0.0528 -0.48839,-0.1538 -0.68307,-0.29974 -0.17887,-0.12886 -0.35077,-0.26586 -0.5486,-0.37567 -0.2543,-0.0912 -0.49624,-0.093 -0.77434,-0.0237 -0.27711,0.0479 -0.55441,0.095 -0.83071,0.14742 -0.24392,0.0467 -0.48803,0.0958 -0.72455,0.16975 -0.27259,0.0853 -0.54472,0.16965 -0.82292,0.23894 -0.38042,0.11968 -0.74705,0.26368 -1.07994,0.46618 0.40078,-0.28686 0.8046,-0.57082 1.20236,-0.86059 0.0499,-0.0363 -0.10231,0.0703 -0.15275,0.10623 -0.0232,0.0165 -0.0673,0.0111 -0.0821,0.033 -0.004,0.006 0.009,0.0123 0.0139,0.0184 0.19484,0.0496 0.41293,-0.0418 0.6122,-0.0629 0.26661,-0.0468 0.5332,-0.0937 0.79988,-0.14017 0.25566,-0.0446 0.51219,-0.0904 0.77054,-0.11212 0.22431,-0.0117 0.44326,0.003 0.66335,0.0244 0.29786,0.0157 0.59053,0.0592 0.86178,0.15255 0.26997,0.0894 0.53892,0.18383 0.83348,0.21778 0.25415,0.007 0.50387,-0.0637 0.75615,-0.10066 0.24251,-0.0417 0.48574,-0.082 0.72461,-0.14103 0.13573,-0.0362 0.27061,-0.073 0.39888,-0.12799 0.5205,-0.22299 1.26041,-0.92774 -0.95282,0.71773 0.2117,-0.1458 0.47703,-0.30978 0.59894,-0.51349 0.10705,-0.21302 0.15581,-0.27874 0.0885,-0.5115 -0.0316,-0.18547 -0.0629,-0.37097 -0.0924,-0.5568 -0.0305,-0.17942 -0.0562,-0.36154 -0.12793,-0.53144 -0.10379,-0.19572 -0.27693,-0.31891 -0.52564,-0.38905 -0.31885,-0.0962 -0.58206,-0.10735 -0.92133,-9e-4 -0.28453,0.0829 -0.55599,0.18888 -0.81545,0.32145 -0.56255,0.27195 -1.05375,0.72746 0.98454,-0.74861 0.0283,-0.0204 -0.0655,0.0312 -0.0928,0.0526 -0.0568,0.0446 -0.0742,0.0931 -0.10441,0.14952 -0.0726,0.1961 -0.0922,0.40185 -0.22818,0.5847 -0.37141,0.64059 -1.23796,1.11868 -2.05682,1.26249 -0.24557,0.045 -0.49158,0.0941 -0.7405,0.11345 -0.26878,0.0107 -0.51833,-0.02 -0.72634,-0.15834 -0.22941,-0.16854 -0.40371,-0.37296 -0.5819,-0.57853 -0.1352,-0.17223 -0.26655,-0.34673 -0.40256,-0.51837 -0.11384,-0.17018 -0.15205,-0.35486 -0.14197,-0.55538 0.0137,-0.22506 0.0711,-0.42013 0.25194,-0.60528 1.24511,-0.86428 1.09134,-1.00611 2.18098,-1.17785 0.2533,-0.0423 0.50892,-0.0972 0.76516,-0.10153 -0.39319,0.34819 -0.77774,0.70307 -1.17957,1.04454 -0.0125,0.0113 -0.0352,10e-4 -0.0528,0.003 -0.0275,0.003 -0.0548,0.008 -0.0817,0.0139 -0.12132,0.0294 -0.23399,0.0781 -0.33859,0.13875 -0.51466,0.33223 -0.25924,0.16949 1.10921,-0.79336 0.0372,-0.0262 -0.0734,0.0538 -0.10773,0.0827 -0.0668,0.0563 -0.12723,0.11739 -0.19199,0.1752 -0.0276,0.0246 -0.0553,0.049 -0.0829,0.0734 -0.13143,0.17323 -0.2072,0.35755 -0.15256,0.55295 0.0352,0.20225 0.0688,0.40494 0.1169,0.60474 0.058,0.2173 0.12857,0.4347 0.27613,0.61944 0.1076,0.10782 0.2336,0.20133 0.41199,0.22252 0.53468,-0.0766 1.70362,-1.25107 -1.15219,0.88847 -0.0214,0.0161 0.077,-0.0128 0.0753,-0.0356 -0.001,-0.0186 -0.0168,-0.0336 -0.0252,-0.0504 -0.17642,-0.18536 -0.38,-0.35432 -0.51445,-0.56641 -0.17334,-0.22613 -0.32793,-0.44881 -0.34082,-0.73081 -0.0359,-0.20359 -0.0754,-0.40788 -0.0717,-0.61647 4.2e-4,-0.009 0.0103,-0.17786 0.0239,-0.18833 0.69421,-0.5329 0.96401,-1.11598 1.70141,-0.97267 0.22836,0.0738 0.38864,0.20315 0.51534,0.37422 0.11213,0.19637 0.15876,0.40712 0.19484,0.62491 0.0561,0.23185 0.12058,0.4639 0.25899,0.66911 0.1129,0.14971 0.25488,0.23946 0.46624,0.29045 0.22024,0.0353 0.44281,0.002 0.65998,-0.063 0.57804,-0.1966 1.00604,-0.68879 -1.06191,0.80799 -0.056,0.0405 0.34204,-0.19437 0.20753,-0.16693 0.0623,-0.23861 -0.0399,-0.46924 -0.0895,-0.69801 -0.0627,-0.20269 -0.14118,-0.39596 -0.27497,-0.57174 -0.14946,-0.17706 -0.37009,-0.29099 -0.56939,-0.42707 -0.2391,-0.12607 -0.49011,-0.21109 -0.79014,-0.19931 -0.76384,0.0487 -1.57116,0.85414 0.63299,-0.71616 -0.23739,0.11688 -0.17254,0.27315 -0.13953,0.45824 0.0372,0.21762 0.0742,0.4353 0.10827,0.65345 0.0475,0.28874 0.0931,0.57813 0.15824,0.86356 0.0404,0.14679 0.0675,0.31391 0.28203,0.33176 0.26237,-0.007 0.51229,-0.0768 0.75508,-0.17042 0.2372,-0.098 0.48112,-0.19436 0.68302,-0.34141 -2.07274,1.47876 -1.26092,1.05466 -0.89298,0.47577 0.0798,-0.21032 0.076,-0.4175 0.0249,-0.62584 -0.0331,-0.18775 -0.0628,-0.37613 -0.10057,-0.56303 -0.04,-0.17613 -0.0849,-0.35423 -0.21521,-0.49765 -0.16301,-0.15534 -0.368,-0.27754 -0.58842,-0.37484 -0.23526,-0.0952 -0.48711,-0.13552 -0.7583,-0.0834 -0.27902,0.0494 -0.55894,0.0982 -0.83306,0.16925 -0.23067,0.0672 -0.44485,0.15684 -0.63143,0.29447 0.41227,-0.29338 0.82457,-0.58675 1.23684,-0.88011 -0.0825,0.0596 -0.10037,0.0658 -0.16533,0.14116 -0.0774,0.0897 -0.1273,0.19334 -0.21387,0.27845 -0.13127,0.21421 -0.24852,0.43728 -0.32465,0.66636 -0.0597,0.171 -0.0843,0.33513 0.0294,0.48574 0.12383,0.10051 0.32185,-0.006 0.46374,-0.0519 0.0945,-0.0414 0.11819,-0.0487 0.20696,-0.1 0.0343,-0.0199 0.13205,-0.0856 0.10027,-0.0629 -2.16149,1.54051 -1.49321,1.04731 -1.02425,0.72288 0.16053,-0.13412 0.34335,-0.26458 0.42905,-0.44037 0.008,-0.0368 0.003,-0.0854 -0.0648,-0.075 -0.0196,0.003 -0.0684,0.0356 -0.053,0.0246 1.18108,-0.85438 1.70162,-1.14957 1.14353,-0.82848 -0.14111,0.19106 -0.25994,0.39584 -0.37935,0.59514 -0.11138,0.18624 -0.16137,0.37604 -0.19224,0.57767 -9.2e-4,0.2273 0.0262,0.44906 0.0872,0.66779 0.0467,0.16076 0.0968,0.34067 0.2936,0.4123 0.23971,0.0362 0.4654,0.013 0.69823,-0.074 0.0945,-0.0347 0.15007,-0.0514 0.23808,-0.0982 0.0368,-0.0195 0.13889,-0.0883 0.10579,-0.0644 -2.19863,1.5782 -1.45248,1.08023 -1.03722,0.7121 0.57837,-0.49161 0.51694,-0.40488 1.63947,-1.19387 0.0375,-0.0265 0.15117,-0.10483 0.11378,-0.0783 -0.40633,0.28959 -0.81451,0.57736 -1.22069,0.8671 -0.0288,0.0206 0.0591,-0.0397 0.0887,-0.0596 0.16417,-0.15535 0.23139,-0.31317 0.20929,-0.51217 -0.0381,-0.20596 -0.0726,-0.41519 -0.16037,-0.60889 -0.0962,-0.17432 -0.2336,-0.32905 -0.42921,-0.43432 -0.21444,-0.0945 -0.4396,-0.17789 -0.69362,-0.18271 -0.30268,0.0335 -0.58193,0.15748 -0.86955,0.24528 -0.62601,0.22016 -1.65128,1.12337 0.69407,-0.58626 -0.62122,0.46233 -1.21896,0.96104 -1.95014,1.29444 -0.24128,0.10081 -0.4853,0.19582 -0.72864,0.29259 -0.56523,0.24237 -1.08779,0.73236 0.99689,-0.76384 0.0295,-0.0212 -0.064,0.0374 -0.0924,0.0594 -0.0902,0.0695 -0.0748,0.0677 -0.11921,0.16038 -0.10449,0.20674 -0.0541,0.40194 0.005,0.60535 0.0541,0.1855 0.12681,0.36491 0.23724,0.53058 0.0896,0.17451 0.21728,0.32318 0.42062,0.41771 0.0925,0.0264 0.13635,0.0353 0.22847,-0.01 0.0275,-0.014 0.10348,-0.0631 0.0792,-0.0455 -1.20283,0.87072 -1.71313,1.15021 -1.17845,0.85362 0.15575,-0.16028 0.057,-0.34974 0.0329,-0.52654 -0.032,-0.17817 -0.0632,-0.35699 -0.1174,-0.53045 -0.0638,-0.18108 -0.16251,-0.34653 -0.25688,-0.5162 -0.11412,-0.1613 -0.28779,-0.26975 -0.5268,-0.27982 -0.2408,0.0168 -0.46532,0.10458 -0.67089,0.2169 -0.49248,0.29597 -1.17757,0.82958 0.99348,-0.71295 0.13517,-0.0959 -0.41617,0.24924 -0.26077,0.19516 -0.12517,0.1702 -0.25692,0.33424 -0.32728,0.52461 -0.0587,0.22886 0.0245,0.44903 0.0625,0.6712 0.0601,0.24952 0.12024,0.5124 0.32369,0.70548 0.21346,0.14832 0.45744,0.20967 0.74744,0.14283 0.42616,-0.0894 0.851,-0.18548 1.27025,-0.30058 0,0 -1.21342,1.05648 -1.21342,1.05648 z"
       inkscape:connector-curvature="0"
       inkscape:transform-center-x="0.66609025"
       inkscape:transform-center-y="-3.4742144" />
    <path
       sodipodi:type="star"
       style="fill:#ffffff;fill-opacity:1;stroke:#ffffff;stroke-width:1.16499996;stroke-linecap:round;stroke-linejoin:round;stroke-miterlimit:4;stroke-dasharray:none;stroke-opacity:1"
       id="choinka4"
       sodipodi:sides="3"
       sodipodi:cx="163.28571"
       sodipodi:cy="256.74551"
       sodipodi:r1="10.018151"
       sodipodi:r2="5.1248355"
       sodipodi:arg1="-1.5519306"
       sodipodi:arg2="-0.50473309"
       inkscape:flatsided="false"
       inkscape:rounded="0"
       inkscape:randomized="0"
       d="m 163.47469,246.72915 4.2968,7.53813 4.09415,7.65009 -8.67661,-0.0479 -8.67225,-0.27941 4.37982,-7.4902 z"
       inkscape:transform-center-x="0.10168281"
       inkscape:transform-center-y="-5.0871356"
       transform="matrix(1.0761354,0,0,2.1001687,-277.7128,-371.55837)" />
    <rect
       style="fill:#ffffff;fill-opacity:1;stroke:#ffffff;stroke-width:1.76538289;stroke-linecap:round;stroke-linejoin:round;stroke-miterlimit:4;stroke-dasharray:none;stroke-opacity:1"
       id="rect885"
       width="2.4568453"
       height="17.792801"
       x="-103.59265"
       y="179.59218" />
    <ellipse
       style="fill:#ffffff;fill-opacity:1;stroke:#ffffff;stroke-width:1.16499996;stroke-linecap:round;stroke-linejoin:round;stroke-miterlimit:4;stroke-dasharray:none;stroke-opacity:1"
       id="balwan1"
       cx="-162.49986"
       cy="188.88948"
       rx="2.8348215"
       ry="2.4568453" />
    <circle
       style="fill:#ffffff;fill-opacity:1;stroke:#ffffff;stroke-width:1.16499996;stroke-linecap:round;stroke-linejoin:round;stroke-miterlimit:4;stroke-dasharray:none;stroke-opacity:1"
       id="balwan2"
       cx="-162.2326"
       cy="196.64029"
       r="4.6302085" />
    <ellipse
       style="fill:#ffffff;fill-opacity:1;stroke:#ffffff;stroke-width:1.16499996;stroke-linecap:round;stroke-linejoin:round;stroke-miterlimit:4;stroke-dasharray:none;stroke-opacity:1"
       id="kamien2"
       cx="-78.844513"
       cy="195.03668"
       rx="2.3623512"
       ry="1.3229166" />
    <path
       sodipodi:type="star"
       style="fill:#ffffff;fill-opacity:1;stroke:#ffffff;stroke-width:1.16499996;stroke-linecap:round;stroke-linejoin:round;stroke-miterlimit:4;stroke-dasharray:none;stroke-opacity:1"
       id="choinka1"
       sodipodi:sides="3"
       sodipodi:cx="163.28571"
       sodipodi:cy="256.74551"
       sodipodi:r1="10.018151"
       sodipodi:r2="5.1248355"
       sodipodi:arg1="-1.5519306"
       sodipodi:arg2="-0.50473309"
       inkscape:flatsided="false"
       inkscape:rounded="0"
       inkscape:randomized="0"
       d="m 163.47469,246.72915 4.2968,7.53813 4.09415,7.65009 -8.67661,-0.0479 -8.67225,-0.27941 4.37982,-7.4902 z"
       inkscape:transform-center-x="0.10168281"
       inkscape:transform-center-y="-5.0871356"
       transform="matrix(1.0761354,0,0,2.1001687,-646.27747,-350.1768)" />
    <path
       sodipodi:type="star"
       style="fill:#ffffff;fill-opacity:1;stroke:#ffffff;stroke-width:1.16499996;stroke-linecap:round;stroke-linejoin:round;stroke-miterlimit:4;stroke-dasharray:none;stroke-opacity:1"
       id="choinka2"
       sodipodi:sides="3"
       sodipodi:cx="163.28571"
       sodipodi:cy="256.74551"
       sodipodi:r1="10.018151"
       sodipodi:r2="5.1248355"
       sodipodi:arg1="-1.5519306"
       sodipodi:arg2="-0.50473309"
       inkscape:flatsided="false"
       inkscape:rounded="0"
       inkscape:randomized="0"
       d="m 163.47469,246.72915 4.2968,7.53813 4.09415,7.65009 -8.67661,-0.0479 -8.67225,-0.27941 4.37982,-7.4902 z"
       inkscape:transform-center-x="0.10168281"
       inkscape:transform-center-y="-5.0871356"
       transform="matrix(1.0761354,0,0,2.1001687,-508.09913,-358.72944)" />
    <path
       sodipodi:type="star"
       style="fill:#ffffff;fill-opacity:1;stroke:#fffeff;stroke-width:1.16499996;stroke-linecap:round;stroke-linejoin:round;stroke-miterlimit:4;stroke-dasharray:none;stroke-opacity:1"
       id="choinka3"
       sodipodi:sides="3"
       sodipodi:cx="163.28571"
       sodipodi:cy="256.74551"
       sodipodi:r1="10.018151"
       sodipodi:r2="5.1248355"
       sodipodi:arg1="-1.5519306"
       sodipodi:arg2="-0.50473309"
       inkscape:flatsided="false"
       inkscape:rounded="0"
       inkscape:randomized="0"
       d="m 163.47469,246.72915 4.2968,7.53813 4.09415,7.65009 -8.67661,-0.0479 -8.67225,-0.27941 4.37982,-7.4902 z"
       inkscape:transform-center-x="0.10168281"
       inkscape:transform-center-y="-5.0871356"
       transform="matrix(1.0761354,0,0,2.1001687,-388.09511,-365.67845)" />
    <rect
       style="fill:#ffffff;fill-opacity:1;stroke:#ffffff;stroke-width:1.76538289;stroke-linecap:round;stroke-linejoin:round;stroke-miterlimit:4;stroke-dasharray:none;stroke-opacity:1"
       id="pien1"
       width="2.4568453"
       height="17.792801"
       x="-472.69186"
       y="200.97372" />
    <rect
       style="fill:#ffffff;fill-opacity:1;stroke:#ffffff;stroke-width:1.76538289;stroke-linecap:round;stroke-linejoin:round;stroke-miterlimit:4;stroke-dasharray:none;stroke-opacity:1"
       id="pien3"
       width="2.4568453"
       height="17.792801"
       x="-213.7077"
       y="185.47209" />
    <rect
       style="fill:#ffffff;fill-opacity:1;stroke:#ffffff;stroke-width:1.76538289;stroke-linecap:round;stroke-linejoin:round;stroke-miterlimit:4;stroke-dasharray:none;stroke-opacity:1"
       id="pien2"
       width="2.4568453"
       height="17.792801"
       x="-333.7117"
       y="192.95564" />
    <path
       style="fill:#ffffff;fill-opacity:1;stroke:#ffffff;stroke-width:0.90830427;stroke-linecap:round;stroke-linejoin:round;stroke-miterlimit:4;stroke-dasharray:none;stroke-opacity:1"
       id="krzak1"
       d="m -396.96311,214.14528 c -0.42194,0.10552 -0.84645,0.20154 -1.27252,0.29103 -0.33484,0.0556 -0.62684,-0.0578 -0.85807,-0.23276 -0.22911,-0.21103 -0.31049,-0.49456 -0.38496,-0.76962 -0.0539,-0.23197 -0.11317,-0.46447 -0.0979,-0.70536 0.0368,-0.20697 0.15901,-0.39111 0.28702,-0.57249 0.48679,-0.56689 1.19107,-1.0149 1.90749,-1.37702 0.2397,-0.11017 0.48268,-0.18153 0.74742,-0.16005 0.28117,0.045 0.48665,0.18464 0.63146,0.37784 0.10363,0.17677 0.20906,0.35117 0.28258,0.53963 0.063,0.17754 0.0972,0.36218 0.13142,0.54614 0.0354,0.19728 0.0905,0.39085 0.0261,0.59266 -0.33196,0.51615 -0.0654,0.12394 -1.45388,1.06146 -0.0362,0.0245 -0.15954,0.0419 -0.20166,0.0373 -0.0712,-0.009 -0.16937,-0.0578 -0.22967,-0.0841 -0.22494,-0.12097 -0.3797,-0.28986 -0.49251,-0.48905 -0.11091,-0.17318 -0.19274,-0.35691 -0.25429,-0.54787 -0.0668,-0.21866 -0.10999,-0.4353 -0.0553,-0.66497 0.22156,-0.58901 1.06361,-0.92125 1.59033,-1.27347 0.0361,-0.0241 0.0863,-0.0267 0.12828,-0.0425 0.043,-0.0166 0.0844,-0.0356 0.12666,-0.0533 0.24078,-0.0971 0.50056,-0.17309 0.7228,-0.30036 0.10988,-0.0508 0.20572,-0.0962 0.3046,-0.16131 0.0361,-0.0237 0.14546,-0.0932 0.11037,-0.0686 -1.47983,1.04075 -1.61518,1.14339 -1.14101,0.78942 0.83255,0.0341 1.0465,-0.91101 1.71603,-1.16454 0.0554,-0.021 0.23032,-0.0685 0.28511,-0.0838 0.29834,-0.10094 0.5913,-0.22478 0.91106,-0.2163 0.27344,0.0364 0.51808,0.1255 0.75225,0.2366 0.21813,0.12387 0.37607,0.29802 0.49308,0.49273 0.10327,0.20139 0.14472,0.42255 0.18589,0.64038 0.0413,0.21288 -10e-4,0.40457 -0.13354,0.59864 -0.0246,0.0263 -0.0435,0.0571 -0.0739,0.0791 -0.47079,0.34153 -0.95094,0.67402 -1.42751,1.00994 -0.0371,0.0262 -0.15103,0.10268 -0.11378,0.0766 0.40222,-0.28297 0.804,-0.56639 1.20877,-0.84681 0.0729,-0.0505 -0.13688,0.10954 -0.20264,0.16637 -0.58495,0.51352 -1.18907,1.06422 -1.99402,1.29563 -0.26208,0.0851 -0.51751,0.078 -0.77235,0.0161 -0.23565,-0.11088 -0.33116,-0.30957 -0.40167,-0.51779 -0.0662,-0.22684 -0.10097,-0.45972 -0.1075,-0.69599 0.009,-0.21209 0.0562,-0.42209 0.14985,-0.62445 0.10287,-0.20971 0.2427,-0.4067 0.36989,-0.60786 0.31782,-0.41192 1.50699,-1.56285 1.83064,-0.83098 0.0246,0.2235 -0.16523,0.39601 -0.34345,0.55534 -0.61089,0.47264 -1.1872,1.03328 -1.96438,1.29269 -0.26161,0.0838 -0.41669,0.10196 -0.606,-0.0642 -0.15134,-0.17477 -0.1615,-0.37866 -0.11851,-0.59302 0.0612,-0.23944 0.17954,-0.46857 0.30321,-0.69336 0.40301,-0.66645 0.96749,-0.89362 1.76197,-1.45384 0.19888,-0.13688 0.43696,-0.20047 0.67682,-0.25749 0.27891,-0.0629 0.56142,-0.10881 0.84313,-0.15771 0.30259,-0.0349 0.58962,0.0284 0.83937,0.14935 0.23598,0.1056 0.45008,0.24249 0.62568,0.40833 0.15085,0.15779 0.21589,0.35225 0.26664,0.54906 0.0422,0.18871 0.0735,0.37955 0.1039,0.57043 0.0506,0.22065 0.063,0.4419 0.011,0.6684 -0.25917,0.67146 -1.07256,1.01581 -1.70584,1.46589 -0.22326,0.12222 -0.46842,0.22757 -0.71469,0.31278 -0.2664,0.0927 -0.53602,0.15299 -0.81601,0.12677 -0.26642,-0.064 -0.34953,-0.2553 -0.41012,-0.46018 -0.0687,-0.28888 -0.11616,-0.58194 -0.16691,-0.87421 -0.0374,-0.21669 -0.075,-0.43338 -0.11288,-0.64999 -0.0449,-0.19362 -0.072,-0.37681 0.0531,-0.56186 0.66691,-0.49633 1.21388,-1.13468 2.1003,-1.09616 0.32766,4.2e-4 0.59573,0.11448 0.85191,0.25715 0.21714,0.14468 0.44532,0.27157 0.61091,0.4593 0.14789,0.18614 0.23481,0.39446 0.30633,0.61053 0.0644,0.24192 0.1416,0.48367 0.12882,0.73707 -0.0206,0.0857 -0.0475,0.19054 -0.13679,0.25289 -0.99473,0.69432 -0.92007,0.86053 -1.64467,1.0267 -0.24809,0.0611 -0.49415,0.0718 -0.72983,0.005 -0.24118,-0.0744 -0.40833,-0.18551 -0.54047,-0.36415 -0.14972,-0.21653 -0.22583,-0.46022 -0.29066,-0.70542 -0.0441,-0.20532 -0.0779,-0.4105 -0.17663,-0.60083 -0.1057,-0.14222 -0.22989,-0.25256 -0.43275,-0.29181 -0.0624,-0.004 -0.11262,-0.0154 -0.1733,0.012 -0.0216,0.009 -0.0723,0.0551 -0.0533,0.0423 0.43157,-0.29208 0.85606,-0.59149 1.29112,-0.87993 0.0213,-0.0141 -0.0358,0.0349 -0.0473,0.0553 -0.0134,0.024 -0.0173,0.0502 -0.0261,0.0753 -0.0306,0.19772 0.008,0.39323 0.0395,0.58569 0.0105,0.26527 0.13624,0.47568 0.29621,0.69108 0.13472,0.20537 0.33003,0.37266 0.50904,0.54954 0.39652,0.53697 -0.80933,1.28987 -1.50642,1.16721 -0.20616,-0.0655 -0.3612,-0.16494 -0.49584,-0.30547 -0.16096,-0.19958 -0.24841,-0.43121 -0.31832,-0.66549 -0.056,-0.20177 -0.0896,-0.40826 -0.12504,-0.61412 -0.0626,-0.21442 -0.0117,-0.41401 0.0914,-0.62118 0.47603,-0.58704 1.18788,-1.08403 1.90681,-1.44289 0.1511,-0.0877 0.31744,-0.0851 0.4841,-0.1099 0.0154,-0.002 0.0294,-0.0102 0.0438,-0.0158 -0.43667,0.34754 -0.87334,0.69508 -1.31001,1.04263 -0.24469,0.0313 -0.48791,0.0743 -0.73099,0.11656 -0.14269,0.0384 -0.29995,0.0356 -0.44136,0.0776 -0.0971,0.0288 -0.16917,0.0803 -0.25144,0.1301 0.40878,-0.28197 0.81756,-0.56392 1.22634,-0.84588 -0.19531,0.1396 -0.28723,0.31181 -0.32129,0.51242 -0.0191,0.17406 -0.002,0.34094 0.0884,0.49334 0.13096,0.16996 0.25709,0.34303 0.38919,0.51247 0.17134,0.19478 0.32946,0.3953 0.55391,0.55113 0.18976,0.11255 0.4123,0.10456 0.64256,0.0791 0.24182,-0.0342 0.48189,-0.0803 0.72244,-0.12238 0.14816,-0.0219 0.29679,-0.057 0.4267,-0.12767 0.0384,-0.0211 0.14309,-0.097 0.10762,-0.0724 -1.27885,0.88549 -1.60182,1.18843 -1.16862,0.79062 0.13867,-0.16746 0.20736,-0.35421 0.25844,-0.54571 0.2516,-0.65737 1.10502,-1.07003 1.83818,-1.37276 0.25855,-0.14322 0.54722,-0.22998 0.83836,-0.30483 0.39969,-0.10234 0.64052,-0.0476 0.99802,0.068 0.28237,0.0858 0.47667,0.24241 0.60746,0.46014 0.0894,0.17709 0.12246,0.37079 0.15663,0.56199 0.0316,0.18561 0.062,0.37143 0.0934,0.55706 0.0527,0.1947 0.0498,0.37549 -0.0387,0.56942 -0.0972,0.24321 -0.33684,0.4059 -0.56056,0.57517 -0.78748,0.63666 -1.24131,1.02721 -2.14832,1.2344 -0.2443,0.0519 -0.491,0.092 -0.73718,0.13409 -0.2129,0.0167 -0.43259,0.1086 -0.64647,0.0934 -0.0507,-0.004 -0.0986,-0.0181 -0.14789,-0.0271 -0.30164,-0.0473 -0.57868,-0.14859 -0.85827,-0.24307 -0.26132,-0.0818 -0.5406,-0.1163 -0.82527,-0.11761 -0.21435,-0.0336 -0.43127,-0.032 -0.65133,-0.01 -0.25236,0.0314 -0.50287,0.0773 -0.75351,0.12051 -0.2671,0.0469 -0.53389,0.0955 -0.801,0.14221 -0.25325,0.0464 -0.46219,0.11247 -0.69054,0.002 -0.0491,-0.0482 -0.0839,-0.0679 -0.0947,-0.13576 -0.0119,-0.0795 0.0576,-0.18119 0.13203,-0.23305 0.48365,-0.33726 0.97785,-0.66384 1.46678,-0.99576 0.33021,-0.20934 0.71872,-0.3318 1.10269,-0.44374 0.28451,-0.0589 0.55181,-0.16308 0.82883,-0.24394 0.24253,-0.0679 0.49161,-0.11132 0.73959,-0.15655 0.27764,-0.0488 0.55529,-0.0976 0.83296,-0.14615 0.30826,-0.0806 0.57905,-0.0249 0.84635,0.087 0.20479,0.12188 0.38944,0.26364 0.57874,0.40072 0.17698,0.13335 0.38592,0.22106 0.62862,0.24932 0.22509,0.007 0.45714,-0.015 0.67355,-0.0831 0.55105,-0.28727 0.26149,-0.14139 -1.14597,0.79866 -0.0299,0.0199 0.0557,-0.0444 0.0782,-0.07 0.0708,-0.081 0.0793,-0.15503 0.0808,-0.2475 -0.0312,-0.18119 -0.0669,-0.36499 -0.13424,-0.53785 -0.0793,-0.15801 -0.17441,-0.28464 -0.38702,-0.3197 -0.22268,-10e-6 -0.43555,0.037 -0.65726,0.0185 -0.30113,-0.04 -0.60911,-0.0756 -0.91891,-0.0628 -0.48669,0.13289 -1.80769,1.17516 1.11049,-0.80372 0.0189,-0.0125 -0.0378,0.0263 -0.0512,0.0431 -0.0345,0.0435 -0.0345,0.083 -0.0436,0.13166 0.0218,0.20235 0.10693,0.39344 0.16609,0.58819 0.22044,0.75894 -0.62641,0.89731 -1.45967,1.47955 -0.28194,0.0901 -0.57574,0.14005 -0.86754,0.19193 -0.2651,0.0555 -0.53757,0.0733 -0.80368,0.0542 -0.0338,-0.005 -0.069,-0.006 -0.10112,-0.0151 -0.54882,-0.16119 0.95633,-0.9153 1.24691,-1.11584 0.0289,-0.02 0.0725,-0.0121 0.10854,-0.0188 0.0511,-0.009 0.1017,-0.0198 0.15257,-0.0297 0.44058,-0.0822 0.88188,-0.16043 1.323,-0.23967 0.33883,-0.0552 0.67361,-0.10977 1.00069,-0.21016 0.0768,-0.043 0.16662,-0.0665 0.24409,-0.1086 0.0339,-0.0184 0.12584,-0.0851 0.0947,-0.0635 -2.03285,1.40674 -1.47616,1.08003 -1.03705,0.66924 0.52507,-0.447 0.27654,-0.24119 1.54125,-1.09484 0.14914,-0.10072 0.29734,-0.0242 0.40629,0.0517 0.5946,0.59165 -0.70424,0.99266 -1.26552,1.39271 -0.3755,0.1178 -0.77204,0.12497 -1.16008,0.1472 -0.35811,-0.005 -0.72317,0.0115 -1.07945,-0.01 -0.0844,-0.005 -0.33414,-0.0409 -0.4239,-0.0533 -0.0576,-0.007 -0.11542,-0.0145 -0.1731,-0.0217 0,0 1.26463,-1.00904 1.26463,-1.00904 v 0 c 0.0571,0.008 0.1142,0.0159 0.1713,0.0237 0.48155,0.0633 0.97668,0.0621 1.4698,0.0461 0.36417,-0.0247 0.78542,-0.0283 1.1024,-0.21852 -0.4189,0.30151 -0.84118,0.59979 -1.25666,0.90454 -0.033,0.0242 0.0863,-0.0351 0.10302,-0.0684 0.0326,-0.0649 -0.0321,-0.12275 -0.0759,-0.16368 -0.065,-0.0286 -0.0909,-0.0195 -0.15998,0.0169 -0.0309,0.0163 -0.11701,0.0732 -0.0893,0.0532 0.40286,-0.28907 0.81001,-0.57399 1.21502,-0.86099 -0.0371,0.0268 -0.0743,0.0536 -0.11149,0.0804 -0.58919,0.51396 -1.18204,1.09464 -1.98935,1.34517 -0.33224,0.0881 -0.6736,0.13292 -1.01187,0.19466 -0.44092,0.0751 -0.88239,0.15037 -1.31861,0.24894 -0.0493,0.0137 -0.0999,0.0236 -0.1481,0.0403 -0.031,0.0105 -0.11334,0.059 -0.0886,0.04 0.41441,-0.32113 0.85881,-0.61588 1.26038,-0.94795 0.0385,-0.0319 -0.20184,-0.0566 0.0422,-0.0292 0.25835,2.6e-4 0.51505,-0.0209 0.76996,-0.0775 0.27927,-0.0529 0.5726,-0.0982 0.81954,-0.23378 -0.41166,0.29445 -0.82717,0.58521 -1.23499,0.88336 -0.0259,0.0187 0.0625,-0.0249 0.0875,-0.0444 0.1121,-0.0878 0.0717,-0.23176 0.0441,-0.33127 -0.0595,-0.20795 -0.13649,-0.41092 -0.19767,-0.61841 -0.0136,-0.67618 0.84636,-1.21725 1.65269,-1.26661 0.31185,0.008 0.61908,0.0374 0.92676,0.0678 0.22972,-1.1e-4 0.46519,-0.0487 0.68754,0.003 0.23941,0.0773 0.37635,0.22022 0.48088,0.41122 0.0818,0.18073 0.10881,0.37864 0.15972,0.56803 0.01,0.0666 0.0259,0.14699 0.0146,0.21559 -0.005,0.0306 -0.059,0.18243 -0.0913,0.20615 -1.3257,0.9746 -0.86567,0.82007 -1.55851,1.03273 -0.24264,0.0465 -0.49072,0.0726 -0.73168,0.037 -0.25905,-0.0528 -0.48839,-0.1538 -0.68307,-0.29974 -0.17887,-0.12886 -0.35077,-0.26586 -0.5486,-0.37567 -0.2543,-0.0912 -0.49624,-0.093 -0.77434,-0.0237 -0.27711,0.0479 -0.55441,0.095 -0.83071,0.14742 -0.24392,0.0467 -0.48803,0.0958 -0.72455,0.16975 -0.27259,0.0853 -0.54472,0.16965 -0.82292,0.23894 -0.38042,0.11968 -0.74705,0.26368 -1.07994,0.46618 0.40078,-0.28686 0.8046,-0.57082 1.20236,-0.86059 0.0499,-0.0363 -0.10231,0.0703 -0.15275,0.10623 -0.0232,0.0165 -0.0673,0.0111 -0.0821,0.033 -0.004,0.006 0.009,0.0123 0.0139,0.0184 0.19484,0.0496 0.41293,-0.0418 0.6122,-0.0629 0.26661,-0.0468 0.5332,-0.0937 0.79988,-0.14017 0.25566,-0.0446 0.51219,-0.0904 0.77054,-0.11212 0.22431,-0.0117 0.44326,0.003 0.66335,0.0244 0.29786,0.0157 0.59053,0.0592 0.86178,0.15255 0.26997,0.0894 0.53892,0.18383 0.83348,0.21778 0.25415,0.007 0.50387,-0.0637 0.75615,-0.10066 0.24251,-0.0417 0.48574,-0.082 0.72461,-0.14103 0.13573,-0.0362 0.27061,-0.073 0.39888,-0.12799 0.5205,-0.22299 1.26041,-0.92774 -0.95282,0.71773 0.2117,-0.1458 0.47703,-0.30978 0.59894,-0.51349 0.10705,-0.21302 0.15581,-0.27874 0.0885,-0.5115 -0.0316,-0.18547 -0.0629,-0.37097 -0.0924,-0.5568 -0.0305,-0.17942 -0.0562,-0.36154 -0.12793,-0.53144 -0.10379,-0.19572 -0.27693,-0.31891 -0.52564,-0.38905 -0.31885,-0.0962 -0.58206,-0.10735 -0.92133,-9e-4 -0.28453,0.0829 -0.55599,0.18888 -0.81545,0.32145 -0.56255,0.27195 -1.05375,0.72746 0.98454,-0.74861 0.0283,-0.0204 -0.0655,0.0312 -0.0928,0.0526 -0.0568,0.0446 -0.0742,0.0931 -0.10441,0.14952 -0.0726,0.1961 -0.0922,0.40185 -0.22818,0.5847 -0.37141,0.64059 -1.23796,1.11868 -2.05682,1.26249 -0.24557,0.045 -0.49158,0.0941 -0.7405,0.11345 -0.26878,0.0107 -0.51833,-0.02 -0.72634,-0.15834 -0.22941,-0.16854 -0.40371,-0.37296 -0.5819,-0.57853 -0.1352,-0.17223 -0.26655,-0.34673 -0.40256,-0.51837 -0.11384,-0.17018 -0.15205,-0.35486 -0.14197,-0.55538 0.0137,-0.22506 0.0711,-0.42013 0.25194,-0.60528 1.24511,-0.86428 1.09134,-1.00611 2.18098,-1.17785 0.2533,-0.0423 0.50892,-0.0972 0.76516,-0.10153 -0.39319,0.34819 -0.77774,0.70307 -1.17957,1.04454 -0.0125,0.0113 -0.0352,0.001 -0.0528,0.003 -0.0275,0.003 -0.0548,0.008 -0.0817,0.0139 -0.12132,0.0294 -0.23399,0.0781 -0.33859,0.13875 -0.51466,0.33223 -0.25924,0.16949 1.10921,-0.79336 0.0372,-0.0262 -0.0734,0.0538 -0.10773,0.0827 -0.0668,0.0563 -0.12723,0.11739 -0.19199,0.1752 -0.0276,0.0246 -0.0553,0.049 -0.0829,0.0734 -0.13143,0.17323 -0.2072,0.35755 -0.15256,0.55295 0.0352,0.20225 0.0688,0.40494 0.1169,0.60474 0.058,0.2173 0.12857,0.4347 0.27613,0.61944 0.1076,0.10782 0.2336,0.20133 0.41199,0.22252 0.53468,-0.0766 1.70362,-1.25107 -1.15219,0.88847 -0.0214,0.0161 0.077,-0.0128 0.0753,-0.0356 -10e-4,-0.0186 -0.0168,-0.0336 -0.0252,-0.0504 -0.17642,-0.18536 -0.38,-0.35432 -0.51445,-0.56641 -0.17334,-0.22613 -0.32793,-0.44881 -0.34082,-0.73081 -0.0359,-0.20359 -0.0754,-0.40788 -0.0717,-0.61647 4.2e-4,-0.009 0.0103,-0.17786 0.0239,-0.18833 0.69421,-0.5329 0.96401,-1.11598 1.70141,-0.97267 0.22836,0.0738 0.38864,0.20315 0.51534,0.37422 0.11213,0.19637 0.15876,0.40712 0.19484,0.62491 0.0561,0.23185 0.12058,0.4639 0.25899,0.66911 0.1129,0.14971 0.25488,0.23946 0.46624,0.29045 0.22024,0.0353 0.44281,0.002 0.65998,-0.063 0.57804,-0.1966 1.00604,-0.68879 -1.06191,0.80799 -0.056,0.0405 0.34204,-0.19437 0.20753,-0.16693 0.0623,-0.23861 -0.0399,-0.46924 -0.0895,-0.69801 -0.0627,-0.2027 -0.14118,-0.39597 -0.27497,-0.57175 -0.14946,-0.17706 -0.37009,-0.29099 -0.56939,-0.42707 -0.2391,-0.12607 -0.49011,-0.21109 -0.79014,-0.19931 -0.76384,0.0487 -1.57116,0.85414 0.63299,-0.71616 -0.23739,0.11688 -0.17254,0.27315 -0.13953,0.45824 0.0372,0.21762 0.0742,0.4353 0.10827,0.65345 0.0475,0.28874 0.0931,0.57813 0.15824,0.86356 0.0404,0.14679 0.0675,0.31391 0.28203,0.33176 0.26237,-0.007 0.51229,-0.0768 0.75508,-0.17042 0.2372,-0.098 0.48112,-0.19436 0.68302,-0.34141 -2.07274,1.47876 -1.26092,1.05466 -0.89298,0.47577 0.0798,-0.21032 0.076,-0.4175 0.0249,-0.62584 -0.0331,-0.18775 -0.0628,-0.37613 -0.10057,-0.56303 -0.04,-0.17613 -0.0849,-0.35423 -0.21521,-0.49765 -0.16301,-0.15534 -0.368,-0.27754 -0.58842,-0.37484 -0.23526,-0.0952 -0.48711,-0.13552 -0.7583,-0.0834 -0.27902,0.0494 -0.55894,0.0982 -0.83306,0.16925 -0.23067,0.0672 -0.44485,0.15684 -0.63143,0.29447 0.41227,-0.29338 0.82457,-0.58675 1.23684,-0.88011 -0.0825,0.0596 -0.10037,0.0658 -0.16533,0.14116 -0.0774,0.0897 -0.1273,0.19334 -0.21387,0.27845 -0.13127,0.21421 -0.24852,0.43728 -0.32465,0.66636 -0.0597,0.171 -0.0843,0.33513 0.0294,0.48574 0.12383,0.10051 0.32185,-0.006 0.46374,-0.0519 0.0945,-0.0414 0.11819,-0.0487 0.20696,-0.1 0.0343,-0.0199 0.13205,-0.0856 0.10027,-0.0629 -2.16149,1.54051 -1.49321,1.04731 -1.02425,0.72288 0.16053,-0.13412 0.34335,-0.26458 0.42905,-0.44037 0.008,-0.0368 0.003,-0.0854 -0.0648,-0.075 -0.0196,0.003 -0.0684,0.0356 -0.053,0.0246 1.18108,-0.85438 1.70162,-1.14957 1.14353,-0.82848 -0.14111,0.19106 -0.25994,0.39584 -0.37935,0.59514 -0.11138,0.18624 -0.16137,0.37604 -0.19224,0.57767 -9.3e-4,0.2273 0.0262,0.44906 0.0872,0.66779 0.0467,0.16076 0.0968,0.34067 0.2936,0.4123 0.23971,0.0362 0.4654,0.013 0.69823,-0.074 0.0945,-0.0347 0.15007,-0.0514 0.23808,-0.0982 0.0368,-0.0195 0.13889,-0.0883 0.10579,-0.0644 -2.19863,1.5782 -1.45248,1.08023 -1.03722,0.7121 0.57837,-0.49161 0.51694,-0.40488 1.63947,-1.19387 0.0375,-0.0265 0.15117,-0.10483 0.11378,-0.0783 -0.40633,0.28959 -0.81451,0.57736 -1.22069,0.8671 -0.0288,0.0206 0.0591,-0.0397 0.0887,-0.0596 0.16417,-0.15535 0.23139,-0.31317 0.20929,-0.51217 -0.0381,-0.20596 -0.0726,-0.41519 -0.16037,-0.60889 -0.0962,-0.17432 -0.2336,-0.32905 -0.42921,-0.43432 -0.21444,-0.0945 -0.4396,-0.17789 -0.69362,-0.18271 -0.30268,0.0335 -0.58193,0.15748 -0.86955,0.24528 -0.62601,0.22016 -1.65128,1.12337 0.69407,-0.58626 -0.62122,0.46233 -1.21896,0.96104 -1.95014,1.29444 -0.24128,0.10081 -0.4853,0.19582 -0.72864,0.29259 -0.56523,0.24237 -1.08779,0.73236 0.99689,-0.76384 0.0295,-0.0212 -0.064,0.0374 -0.0924,0.0594 -0.0902,0.0695 -0.0748,0.0677 -0.11921,0.16038 -0.10449,0.20674 -0.0541,0.40194 0.005,0.60535 0.0541,0.1855 0.12681,0.36491 0.23724,0.53058 0.0896,0.17451 0.21728,0.32318 0.42062,0.41771 0.0925,0.0264 0.13635,0.0353 0.22847,-0.01 0.0275,-0.014 0.10348,-0.0631 0.0792,-0.0455 -1.20283,0.87072 -1.71313,1.15021 -1.17845,0.85362 0.15575,-0.16028 0.057,-0.34974 0.0329,-0.52654 -0.032,-0.17817 -0.0632,-0.35699 -0.1174,-0.53045 -0.0638,-0.18108 -0.16251,-0.34653 -0.25688,-0.5162 -0.11412,-0.1613 -0.28779,-0.26975 -0.5268,-0.27982 -0.2408,0.0168 -0.46532,0.10458 -0.67089,0.2169 -0.49248,0.29597 -1.17757,0.82958 0.99348,-0.71295 0.13517,-0.0959 -0.41617,0.24924 -0.26077,0.19516 -0.12517,0.1702 -0.25692,0.33424 -0.32728,0.52461 -0.0587,0.22886 0.0245,0.44903 0.0625,0.6712 0.0601,0.24952 0.12024,0.5124 0.32369,0.70548 0.21346,0.14832 0.45744,0.20967 0.74744,0.14283 0.42616,-0.0894 0.851,-0.18548 1.27025,-0.30058 0,0 -1.21342,1.05648 -1.21342,1.05648 z"
       inkscape:connector-curvature="0"
       inkscape:transform-center-x="0.66609025"
       inkscape:transform-center-y="-3.4742144" />
    <path
       style="fill:#ffffff;fill-opacity:1;stroke:#ffffff;stroke-width:0.90830427;stroke-linecap:round;stroke-linejoin:round;stroke-miterlimit:4;stroke-dasharray:none;stroke-opacity:1"
       id="krzak2"
       d="m -386.19346,213.59932 c -0.42194,0.10552 -0.84645,0.20154 -1.27252,0.29103 -0.33484,0.0556 -0.62684,-0.0578 -0.85807,-0.23276 -0.22911,-0.21103 -0.31049,-0.49456 -0.38496,-0.76962 -0.0539,-0.23197 -0.11317,-0.46447 -0.0979,-0.70536 0.0368,-0.20697 0.15901,-0.39111 0.28702,-0.57249 0.48679,-0.56689 1.19107,-1.0149 1.90749,-1.37702 0.2397,-0.11017 0.48268,-0.18153 0.74742,-0.16005 0.28117,0.045 0.48665,0.18464 0.63146,0.37784 0.10363,0.17677 0.20906,0.35117 0.28258,0.53963 0.063,0.17754 0.0972,0.36218 0.13142,0.54614 0.0354,0.19728 0.0905,0.39085 0.0261,0.59266 -0.33196,0.51615 -0.0654,0.12394 -1.45388,1.06146 -0.0362,0.0245 -0.15954,0.0419 -0.20166,0.0373 -0.0712,-0.009 -0.16937,-0.0578 -0.22967,-0.0841 -0.22494,-0.12097 -0.3797,-0.28986 -0.49251,-0.48905 -0.11091,-0.17318 -0.19274,-0.35691 -0.25429,-0.54787 -0.0668,-0.21866 -0.10999,-0.4353 -0.0553,-0.66497 0.22156,-0.58901 1.06361,-0.92125 1.59033,-1.27347 0.0361,-0.0241 0.0863,-0.0267 0.12828,-0.0425 0.043,-0.0166 0.0844,-0.0356 0.12666,-0.0533 0.24078,-0.0971 0.50056,-0.17309 0.7228,-0.30036 0.10988,-0.0508 0.20572,-0.0962 0.3046,-0.16131 0.0361,-0.0237 0.14546,-0.0932 0.11037,-0.0686 -1.47983,1.04075 -1.61518,1.14339 -1.14101,0.78942 0.83255,0.0341 1.0465,-0.91101 1.71603,-1.16454 0.0554,-0.021 0.23032,-0.0685 0.28511,-0.0838 0.29834,-0.10094 0.5913,-0.22478 0.91106,-0.2163 0.27344,0.0364 0.51808,0.1255 0.75225,0.2366 0.21813,0.12387 0.37607,0.29802 0.49308,0.49273 0.10327,0.20139 0.14472,0.42255 0.18589,0.64038 0.0413,0.21288 -0.001,0.40457 -0.13354,0.59864 -0.0246,0.0263 -0.0435,0.0571 -0.0739,0.0791 -0.47079,0.34153 -0.95094,0.67402 -1.42751,1.00994 -0.0371,0.0262 -0.15103,0.10268 -0.11378,0.0766 0.40222,-0.28297 0.804,-0.56639 1.20877,-0.84681 0.0729,-0.0505 -0.13688,0.10954 -0.20264,0.16637 -0.58495,0.51352 -1.18907,1.06422 -1.99402,1.29563 -0.26208,0.0851 -0.51751,0.078 -0.77235,0.0161 -0.23565,-0.11088 -0.33116,-0.30957 -0.40167,-0.51779 -0.0662,-0.22684 -0.10097,-0.45972 -0.1075,-0.69599 0.009,-0.21209 0.0562,-0.42209 0.14985,-0.62445 0.10287,-0.20971 0.2427,-0.4067 0.36989,-0.60786 0.31782,-0.41192 1.50699,-1.56285 1.83064,-0.83098 0.0246,0.2235 -0.16523,0.39601 -0.34345,0.55534 -0.61089,0.47264 -1.1872,1.03328 -1.96438,1.29269 -0.26161,0.0838 -0.41669,0.10196 -0.606,-0.0642 -0.15134,-0.17477 -0.1615,-0.37866 -0.11851,-0.59302 0.0612,-0.23944 0.17954,-0.46857 0.30321,-0.69336 0.40301,-0.66645 0.96749,-0.89362 1.76197,-1.45384 0.19888,-0.13688 0.43696,-0.20047 0.67682,-0.25749 0.27891,-0.0629 0.56142,-0.10881 0.84313,-0.15771 0.30259,-0.0349 0.58962,0.0284 0.83937,0.14935 0.23598,0.1056 0.45008,0.24249 0.62568,0.40833 0.15085,0.15779 0.21589,0.35225 0.26664,0.54906 0.0422,0.18871 0.0735,0.37955 0.1039,0.57043 0.0506,0.22065 0.063,0.4419 0.011,0.6684 -0.25917,0.67146 -1.07256,1.01581 -1.70584,1.46589 -0.22326,0.12222 -0.46842,0.22757 -0.71469,0.31278 -0.2664,0.0927 -0.53602,0.15299 -0.81601,0.12677 -0.26642,-0.064 -0.34953,-0.2553 -0.41012,-0.46018 -0.0687,-0.28888 -0.11616,-0.58194 -0.16691,-0.87421 -0.0374,-0.21669 -0.075,-0.43338 -0.11288,-0.64999 -0.0449,-0.19362 -0.072,-0.37681 0.0531,-0.56186 0.66691,-0.49633 1.21388,-1.13468 2.1003,-1.09616 0.32766,4.2e-4 0.59573,0.11448 0.85191,0.25715 0.21714,0.14468 0.44532,0.27157 0.61091,0.4593 0.14789,0.18614 0.23481,0.39446 0.30633,0.61053 0.0644,0.24192 0.1416,0.48367 0.12882,0.73707 -0.0206,0.0857 -0.0475,0.19054 -0.13679,0.25289 -0.99473,0.69432 -0.92007,0.86053 -1.64467,1.0267 -0.24809,0.0611 -0.49415,0.0718 -0.72983,0.005 -0.24118,-0.0744 -0.40833,-0.18551 -0.54047,-0.36415 -0.14972,-0.21653 -0.22583,-0.46022 -0.29066,-0.70542 -0.0441,-0.20532 -0.0779,-0.4105 -0.17663,-0.60083 -0.1057,-0.14222 -0.22989,-0.25256 -0.43275,-0.29181 -0.0624,-0.004 -0.11262,-0.0154 -0.1733,0.012 -0.0216,0.009 -0.0723,0.0551 -0.0533,0.0423 0.43157,-0.29208 0.85606,-0.59149 1.29112,-0.87993 0.0213,-0.0141 -0.0358,0.0349 -0.0473,0.0553 -0.0134,0.024 -0.0173,0.0502 -0.0261,0.0753 -0.0306,0.19772 0.008,0.39323 0.0395,0.58569 0.0105,0.26527 0.13624,0.47568 0.29621,0.69108 0.13472,0.20537 0.33003,0.37266 0.50904,0.54954 0.39652,0.53697 -0.80933,1.28987 -1.50642,1.16721 -0.20616,-0.0655 -0.3612,-0.16494 -0.49584,-0.30547 -0.16096,-0.19958 -0.24841,-0.43121 -0.31832,-0.66549 -0.056,-0.20177 -0.0896,-0.40826 -0.12504,-0.61412 -0.0626,-0.21442 -0.0117,-0.41401 0.0914,-0.62118 0.47603,-0.58704 1.18788,-1.08403 1.90681,-1.44289 0.1511,-0.0877 0.31744,-0.0851 0.4841,-0.1099 0.0154,-0.002 0.0294,-0.0102 0.0438,-0.0158 -0.43667,0.34754 -0.87334,0.69508 -1.31001,1.04263 -0.24469,0.0313 -0.48791,0.0743 -0.73099,0.11656 -0.14269,0.0384 -0.29995,0.0356 -0.44136,0.0776 -0.0971,0.0288 -0.16917,0.0803 -0.25144,0.1301 0.40878,-0.28197 0.81756,-0.56392 1.22634,-0.84588 -0.19531,0.1396 -0.28723,0.31181 -0.32129,0.51242 -0.0191,0.17406 -0.002,0.34094 0.0884,0.49334 0.13096,0.16996 0.25709,0.34303 0.38919,0.51247 0.17134,0.19478 0.32946,0.3953 0.55391,0.55113 0.18976,0.11255 0.4123,0.10456 0.64256,0.0791 0.24182,-0.0342 0.48189,-0.0803 0.72244,-0.12238 0.14816,-0.0219 0.29679,-0.057 0.4267,-0.12767 0.0384,-0.0211 0.14309,-0.097 0.10762,-0.0724 -1.27885,0.88549 -1.60182,1.18843 -1.16862,0.79062 0.13867,-0.16746 0.20736,-0.35421 0.25844,-0.54571 0.2516,-0.65737 1.10502,-1.07003 1.83818,-1.37276 0.25855,-0.14322 0.54722,-0.22998 0.83836,-0.30483 0.39969,-0.10234 0.64052,-0.0476 0.99802,0.068 0.28237,0.0858 0.47667,0.24241 0.60746,0.46014 0.0894,0.17709 0.12246,0.37079 0.15663,0.56199 0.0316,0.18561 0.062,0.37143 0.0934,0.55706 0.0527,0.1947 0.0498,0.37549 -0.0387,0.56942 -0.0972,0.24321 -0.33684,0.4059 -0.56056,0.57517 -0.78748,0.63666 -1.24131,1.02721 -2.14832,1.2344 -0.2443,0.0519 -0.491,0.092 -0.73718,0.13409 -0.2129,0.0167 -0.43259,0.1086 -0.64647,0.0934 -0.0507,-0.004 -0.0986,-0.0181 -0.14789,-0.0271 -0.30164,-0.0473 -0.57868,-0.14859 -0.85827,-0.24307 -0.26132,-0.0818 -0.5406,-0.1163 -0.82527,-0.11761 -0.21435,-0.0336 -0.43127,-0.032 -0.65133,-0.01 -0.25236,0.0314 -0.50287,0.0773 -0.75351,0.12051 -0.2671,0.0469 -0.53389,0.0955 -0.801,0.14221 -0.25325,0.0464 -0.46219,0.11247 -0.69054,0.002 -0.0491,-0.0482 -0.0839,-0.0679 -0.0947,-0.13576 -0.0119,-0.0795 0.0576,-0.18119 0.13203,-0.23305 0.48365,-0.33726 0.97785,-0.66384 1.46678,-0.99576 0.33021,-0.20934 0.71872,-0.3318 1.10269,-0.44374 0.28451,-0.0589 0.55181,-0.16308 0.82883,-0.24394 0.24253,-0.0679 0.49161,-0.11132 0.73959,-0.15655 0.27764,-0.0488 0.55529,-0.0976 0.83296,-0.14615 0.30826,-0.0806 0.57905,-0.0249 0.84635,0.087 0.20479,0.12188 0.38944,0.26364 0.57874,0.40072 0.17698,0.13335 0.38592,0.22106 0.62862,0.24932 0.22509,0.007 0.45714,-0.015 0.67355,-0.0831 0.55105,-0.28727 0.26149,-0.14139 -1.14597,0.79866 -0.0299,0.0199 0.0557,-0.0444 0.0782,-0.07 0.0708,-0.081 0.0793,-0.15503 0.0808,-0.2475 -0.0312,-0.18119 -0.0669,-0.36499 -0.13424,-0.53785 -0.0793,-0.15801 -0.17441,-0.28464 -0.38702,-0.3197 -0.22268,-1e-5 -0.43555,0.037 -0.65726,0.0185 -0.30113,-0.04 -0.60911,-0.0756 -0.91891,-0.0628 -0.48669,0.13289 -1.80769,1.17516 1.11049,-0.80372 0.0189,-0.0125 -0.0378,0.0263 -0.0512,0.0431 -0.0345,0.0435 -0.0345,0.083 -0.0436,0.13166 0.0218,0.20235 0.10693,0.39344 0.16609,0.58819 0.22044,0.75894 -0.62641,0.89731 -1.45967,1.47955 -0.28194,0.0901 -0.57574,0.14005 -0.86754,0.19193 -0.2651,0.0555 -0.53757,0.0733 -0.80368,0.0542 -0.0338,-0.005 -0.069,-0.006 -0.10112,-0.0151 -0.54882,-0.16119 0.95633,-0.9153 1.24691,-1.11584 0.0289,-0.02 0.0725,-0.0121 0.10854,-0.0188 0.0511,-0.009 0.1017,-0.0198 0.15257,-0.0297 0.44058,-0.0822 0.88188,-0.16043 1.323,-0.23967 0.33883,-0.0552 0.67361,-0.10977 1.00069,-0.21016 0.0768,-0.043 0.16662,-0.0665 0.24409,-0.1086 0.0339,-0.0184 0.12584,-0.0851 0.0947,-0.0635 -2.03285,1.40674 -1.47616,1.08003 -1.03705,0.66924 0.52507,-0.447 0.27654,-0.24119 1.54125,-1.09484 0.14914,-0.10072 0.29734,-0.0242 0.40629,0.0517 0.5946,0.59165 -0.70424,0.99266 -1.26552,1.39271 -0.3755,0.1178 -0.77204,0.12497 -1.16008,0.1472 -0.35811,-0.005 -0.72317,0.0115 -1.07945,-0.01 -0.0844,-0.005 -0.33414,-0.0409 -0.4239,-0.0533 -0.0576,-0.007 -0.11542,-0.0145 -0.1731,-0.0217 0,0 1.26463,-1.00904 1.26463,-1.00904 v 0 c 0.0571,0.008 0.1142,0.0159 0.1713,0.0237 0.48155,0.0633 0.97668,0.0621 1.4698,0.0461 0.36417,-0.0247 0.78542,-0.0283 1.1024,-0.21852 -0.4189,0.30151 -0.84118,0.59979 -1.25666,0.90454 -0.033,0.0242 0.0863,-0.0351 0.10302,-0.0684 0.0326,-0.0649 -0.0321,-0.12275 -0.0759,-0.16368 -0.065,-0.0286 -0.0909,-0.0195 -0.15998,0.0169 -0.0309,0.0163 -0.11701,0.0732 -0.0893,0.0532 0.40286,-0.28907 0.81001,-0.57399 1.21502,-0.86099 -0.0371,0.0268 -0.0743,0.0536 -0.11149,0.0804 -0.58919,0.51396 -1.18204,1.09464 -1.98935,1.34517 -0.33224,0.0881 -0.6736,0.13292 -1.01187,0.19466 -0.44092,0.0751 -0.88239,0.15037 -1.31861,0.24894 -0.0493,0.0137 -0.0999,0.0236 -0.1481,0.0403 -0.031,0.0105 -0.11334,0.059 -0.0886,0.04 0.41441,-0.32113 0.85881,-0.61588 1.26038,-0.94795 0.0385,-0.0319 -0.20184,-0.0566 0.0422,-0.0292 0.25835,2.6e-4 0.51505,-0.0209 0.76996,-0.0775 0.27927,-0.0529 0.5726,-0.0982 0.81954,-0.23378 -0.41166,0.29445 -0.82717,0.58521 -1.23499,0.88336 -0.0259,0.0187 0.0625,-0.0249 0.0875,-0.0444 0.1121,-0.0878 0.0717,-0.23176 0.0441,-0.33127 -0.0595,-0.20795 -0.13649,-0.41092 -0.19767,-0.61841 -0.0136,-0.67618 0.84636,-1.21725 1.65269,-1.26661 0.31185,0.008 0.61908,0.0374 0.92676,0.0678 0.22972,-1.1e-4 0.46519,-0.0487 0.68754,0.003 0.23941,0.0773 0.37635,0.22022 0.48088,0.41122 0.0818,0.18073 0.10881,0.37864 0.15972,0.56803 0.01,0.0666 0.0259,0.14699 0.0146,0.21559 -0.005,0.0306 -0.059,0.18243 -0.0913,0.20615 -1.3257,0.9746 -0.86567,0.82007 -1.55851,1.03273 -0.24264,0.0465 -0.49072,0.0726 -0.73168,0.037 -0.25905,-0.0528 -0.48839,-0.1538 -0.68307,-0.29974 -0.17887,-0.12886 -0.35077,-0.26586 -0.5486,-0.37567 -0.2543,-0.0912 -0.49624,-0.093 -0.77434,-0.0237 -0.27711,0.0479 -0.55441,0.095 -0.83071,0.14742 -0.24392,0.0467 -0.48803,0.0958 -0.72455,0.16975 -0.27259,0.0853 -0.54472,0.16965 -0.82292,0.23894 -0.38042,0.11968 -0.74705,0.26368 -1.07994,0.46618 0.40078,-0.28686 0.8046,-0.57082 1.20236,-0.86059 0.0499,-0.0363 -0.10231,0.0703 -0.15275,0.10623 -0.0232,0.0165 -0.0673,0.0111 -0.0821,0.033 -0.004,0.006 0.009,0.0123 0.0139,0.0184 0.19484,0.0496 0.41293,-0.0418 0.6122,-0.0629 0.26661,-0.0468 0.5332,-0.0937 0.79988,-0.14017 0.25566,-0.0446 0.51219,-0.0904 0.77054,-0.11212 0.22431,-0.0117 0.44326,0.003 0.66335,0.0244 0.29786,0.0157 0.59053,0.0592 0.86178,0.15255 0.26997,0.0894 0.53892,0.18383 0.83348,0.21778 0.25415,0.007 0.50387,-0.0637 0.75615,-0.10066 0.24251,-0.0417 0.48574,-0.082 0.72461,-0.14103 0.13573,-0.0362 0.27061,-0.073 0.39888,-0.12799 0.5205,-0.22299 1.26041,-0.92774 -0.95282,0.71773 0.2117,-0.1458 0.47703,-0.30978 0.59894,-0.51349 0.10705,-0.21302 0.15581,-0.27874 0.0885,-0.5115 -0.0316,-0.18547 -0.0629,-0.37097 -0.0924,-0.5568 -0.0305,-0.17942 -0.0562,-0.36154 -0.12793,-0.53144 -0.10379,-0.19572 -0.27693,-0.31891 -0.52564,-0.38905 -0.31885,-0.0962 -0.58206,-0.10735 -0.92133,-9e-4 -0.28453,0.0829 -0.55599,0.18888 -0.81545,0.32145 -0.56255,0.27195 -1.05375,0.72746 0.98454,-0.74861 0.0283,-0.0204 -0.0655,0.0312 -0.0928,0.0526 -0.0568,0.0446 -0.0742,0.0931 -0.10441,0.14952 -0.0726,0.1961 -0.0922,0.40185 -0.22818,0.5847 -0.37141,0.64059 -1.23796,1.11868 -2.05682,1.26249 -0.24557,0.045 -0.49158,0.0941 -0.7405,0.11345 -0.26878,0.0107 -0.51833,-0.02 -0.72634,-0.15834 -0.22941,-0.16854 -0.40371,-0.37296 -0.5819,-0.57853 -0.1352,-0.17223 -0.26655,-0.34673 -0.40256,-0.51837 -0.11384,-0.17018 -0.15205,-0.35486 -0.14197,-0.55538 0.0137,-0.22506 0.0711,-0.42013 0.25194,-0.60528 1.24511,-0.86428 1.09134,-1.00611 2.18098,-1.17785 0.2533,-0.0423 0.50892,-0.0972 0.76516,-0.10153 -0.39319,0.34819 -0.77774,0.70307 -1.17957,1.04454 -0.0125,0.0113 -0.0352,10e-4 -0.0528,0.003 -0.0275,0.003 -0.0548,0.008 -0.0817,0.0139 -0.12132,0.0294 -0.23399,0.0781 -0.33859,0.13875 -0.51466,0.33223 -0.25924,0.16949 1.10921,-0.79336 0.0372,-0.0262 -0.0734,0.0538 -0.10773,0.0827 -0.0668,0.0563 -0.12723,0.11739 -0.19199,0.1752 -0.0276,0.0246 -0.0553,0.049 -0.0829,0.0734 -0.13143,0.17323 -0.2072,0.35755 -0.15256,0.55295 0.0352,0.20225 0.0688,0.40494 0.1169,0.60474 0.058,0.2173 0.12857,0.4347 0.27613,0.61944 0.1076,0.10782 0.2336,0.20133 0.41199,0.22252 0.53468,-0.0766 1.70362,-1.25107 -1.15219,0.88847 -0.0214,0.0161 0.077,-0.0128 0.0753,-0.0356 -10e-4,-0.0186 -0.0168,-0.0336 -0.0252,-0.0504 -0.17642,-0.18536 -0.38,-0.35432 -0.51445,-0.56641 -0.17334,-0.22613 -0.32793,-0.44881 -0.34082,-0.73081 -0.0359,-0.20359 -0.0754,-0.40788 -0.0717,-0.61647 4.2e-4,-0.009 0.0103,-0.17786 0.0239,-0.18833 0.69421,-0.5329 0.96401,-1.11598 1.70141,-0.97267 0.22836,0.0738 0.38864,0.20315 0.51534,0.37422 0.11213,0.19637 0.15876,0.40712 0.19484,0.62491 0.0561,0.23185 0.12058,0.4639 0.25899,0.66911 0.1129,0.14971 0.25488,0.23946 0.46624,0.29045 0.22024,0.0353 0.44281,0.002 0.65998,-0.063 0.57804,-0.1966 1.00604,-0.68879 -1.06191,0.808 -0.056,0.0405 0.34204,-0.19438 0.20753,-0.16694 0.0623,-0.23861 -0.0399,-0.46923 -0.0895,-0.69801 -0.0627,-0.2027 -0.14118,-0.39597 -0.27497,-0.57175 -0.14946,-0.17706 -0.37009,-0.29099 -0.56939,-0.42707 -0.2391,-0.12607 -0.49011,-0.21109 -0.79014,-0.19931 -0.76384,0.0487 -1.57116,0.85414 0.63299,-0.71616 -0.23739,0.11688 -0.17254,0.27315 -0.13953,0.45824 0.0372,0.21762 0.0742,0.4353 0.10827,0.65345 0.0475,0.28874 0.0931,0.57813 0.15824,0.86356 0.0404,0.14679 0.0675,0.31391 0.28203,0.33176 0.26237,-0.007 0.51229,-0.0768 0.75508,-0.17042 0.2372,-0.098 0.48112,-0.19436 0.68302,-0.34141 -2.07274,1.47876 -1.26092,1.05466 -0.89298,0.47577 0.0798,-0.21032 0.076,-0.4175 0.0249,-0.62584 -0.0331,-0.18775 -0.0628,-0.37613 -0.10057,-0.56303 -0.04,-0.17613 -0.0849,-0.35423 -0.21521,-0.49765 -0.16301,-0.15534 -0.368,-0.27754 -0.58842,-0.37484 -0.23526,-0.0952 -0.48711,-0.13552 -0.7583,-0.0834 -0.27902,0.0494 -0.55894,0.0982 -0.83306,0.16925 -0.23067,0.0672 -0.44485,0.15684 -0.63143,0.29447 0.41227,-0.29338 0.82457,-0.58675 1.23684,-0.88011 -0.0825,0.0596 -0.10037,0.0658 -0.16533,0.14116 -0.0774,0.0897 -0.1273,0.19334 -0.21387,0.27845 -0.13127,0.21421 -0.24852,0.43728 -0.32465,0.66636 -0.0597,0.171 -0.0843,0.33513 0.0294,0.48574 0.12383,0.10051 0.32185,-0.006 0.46374,-0.0519 0.0945,-0.0414 0.11819,-0.0487 0.20696,-0.1 0.0343,-0.0199 0.13205,-0.0856 0.10027,-0.0629 -2.16149,1.54051 -1.49321,1.04731 -1.02425,0.72288 0.16053,-0.13412 0.34335,-0.26458 0.42905,-0.44037 0.008,-0.0368 0.003,-0.0854 -0.0648,-0.075 -0.0196,0.003 -0.0684,0.0356 -0.053,0.0246 1.18108,-0.85438 1.70162,-1.14957 1.14353,-0.82848 -0.14111,0.19106 -0.25994,0.39584 -0.37935,0.59514 -0.11138,0.18624 -0.16137,0.37604 -0.19224,0.57767 -9.3e-4,0.2273 0.0262,0.44907 0.0872,0.66779 0.0467,0.16076 0.0968,0.34067 0.2936,0.4123 0.23971,0.0362 0.4654,0.013 0.69823,-0.074 0.0945,-0.0347 0.15007,-0.0514 0.23808,-0.0982 0.0368,-0.0195 0.13889,-0.0883 0.10579,-0.0644 -2.19863,1.5782 -1.45248,1.08023 -1.03722,0.7121 0.57837,-0.49161 0.51694,-0.40488 1.63947,-1.19387 0.0375,-0.0265 0.15117,-0.10483 0.11378,-0.0783 -0.40633,0.28959 -0.81451,0.57736 -1.22069,0.8671 -0.0288,0.0206 0.0591,-0.0397 0.0887,-0.0596 0.16417,-0.15535 0.23139,-0.31317 0.20929,-0.51217 -0.0381,-0.20595 -0.0726,-0.41519 -0.16037,-0.60888 -0.0962,-0.17433 -0.2336,-0.32906 -0.42921,-0.43433 -0.21444,-0.0945 -0.4396,-0.17789 -0.69362,-0.18271 -0.30268,0.0335 -0.58193,0.15748 -0.86955,0.24528 -0.62601,0.22016 -1.65128,1.12337 0.69407,-0.58626 -0.62122,0.46233 -1.21896,0.96104 -1.95014,1.29444 -0.24128,0.10081 -0.4853,0.19582 -0.72864,0.29259 -0.56523,0.24237 -1.08779,0.73236 0.99689,-0.76384 0.0295,-0.0212 -0.064,0.0374 -0.0924,0.0594 -0.0902,0.0695 -0.0748,0.0677 -0.11921,0.16038 -0.10449,0.20674 -0.0541,0.40194 0.005,0.60535 0.0541,0.1855 0.12681,0.36491 0.23724,0.53058 0.0896,0.17451 0.21728,0.32318 0.42062,0.41771 0.0925,0.0264 0.13635,0.0353 0.22847,-0.01 0.0275,-0.014 0.10348,-0.0631 0.0792,-0.0455 -1.20283,0.87072 -1.71313,1.15021 -1.17845,0.85362 0.15575,-0.16028 0.057,-0.34974 0.0329,-0.52654 -0.032,-0.17817 -0.0632,-0.35699 -0.1174,-0.53045 -0.0638,-0.18108 -0.16251,-0.34653 -0.25688,-0.5162 -0.11412,-0.16129 -0.28779,-0.26974 -0.5268,-0.27981 -0.2408,0.0168 -0.46532,0.10458 -0.67089,0.2169 -0.49248,0.29597 -1.17757,0.82958 0.99348,-0.71295 0.13517,-0.0959 -0.41617,0.24924 -0.26077,0.19516 -0.12517,0.1702 -0.25692,0.33424 -0.32728,0.52461 -0.0587,0.22886 0.0245,0.44903 0.0625,0.6712 0.0601,0.24952 0.12024,0.5124 0.32369,0.70548 0.21346,0.14832 0.45744,0.20967 0.74744,0.14283 0.42616,-0.0894 0.851,-0.18548 1.27025,-0.30058 0,0 -1.21342,1.05648 -1.21342,1.05648 z"
       inkscape:connector-curvature="0"
       inkscape:transform-center-x="0.66609025"
       inkscape:transform-center-y="-3.4742144" />
    <ellipse
       style="fill:#ffffff;fill-opacity:1;stroke:#ffffff;stroke-width:1.16499996;stroke-linecap:round;stroke-linejoin:round;stroke-miterlimit:4;stroke-dasharray:none;stroke-opacity:1"
       id="kamien1"
       cx="-319.38708"
       cy="208.53378"
       rx="2.3623512"
       ry="1.3229166" />
  </g>
</svg>
